<svg width="726" height="39" viewBox="0 0 726 39" fill="none" xmlns="http://www.w3.org/2000/svg">
<line y1="18" x2="270" y2="18" stroke="#F7F2EB" stroke-width="2"/>
<line x1="456" y1="18" x2="726" y2="18" stroke="#F7F2EB" stroke-width="2"/>
<path d="M329.521 37.6308C329.209 37.3919 329.209 37.3919 329.062 37.0979C328.959 36.0509 328.959 36.0509 329.35 35.5593C329.9 35.1004 330.472 34.8041 331.111 34.4883C334.941 32.5311 339.065 29.7692 340.97 25.7773C341.019 25.6803 341.067 25.5833 341.117 25.4833C341.037 25.4709 340.956 25.4585 340.873 25.4457C336.973 24.8238 333.9 23.3831 331.414 20.1906C329.34 17.2799 328.7 13.987 329.125 10.4585C329.689 7.17524 331.606 4.20489 334.306 2.27367C337.292 0.360056 340.671 -0.423364 344.186 0.22343C347.574 1.0031 350.461 2.88466 352.378 5.81303C354.742 9.61164 354.66 14.5183 353.708 18.7657C352.24 24.927 348.829 30.2802 343.405 33.6549C339.811 35.8219 335.969 36.9702 331.855 37.686C331.601 37.7306 331.601 37.7306 331.343 37.7761C330.674 37.8789 330.141 37.9272 329.521 37.6308ZM338.912 32.9813C339.183 32.8872 339.183 32.8872 339.479 32.7258C339.594 32.6665 339.708 32.6073 339.826 32.5463C340.01 32.4478 340.01 32.4478 340.198 32.3473C340.324 32.2802 340.45 32.2131 340.58 32.144C342.441 31.1313 344.006 29.8889 345.528 28.4237C345.642 28.3202 345.757 28.2167 345.875 28.1101C349.55 24.682 351.409 19.1568 351.611 14.2512C351.68 11.5714 351.68 11.5714 350.967 9.01706C350.903 8.86488 350.839 8.7127 350.773 8.5559C349.789 6.41295 348.183 4.82708 346.116 3.72435C346.012 3.66844 345.908 3.61253 345.801 3.55493C343.503 2.42726 340.864 2.41096 338.462 3.18264C335.733 4.14417 333.794 5.99172 332.541 8.56261C331.408 11.0103 331.374 13.7006 332.296 16.221C333.249 18.6209 335.021 20.5776 337.359 21.7067C338.817 22.3317 340.185 22.6001 341.759 22.7291C342.985 22.8354 342.985 22.8354 343.469 23.131C343.956 23.9692 343.858 24.9915 343.764 25.9244C343.001 28.7071 340.756 31.0073 338.618 32.8343C338.763 32.9071 338.763 32.9071 338.912 32.9813Z" fill="#D5AF7B"/>
<path d="M357.004 37.5476C356.65 37.022 356.614 36.7128 356.603 36.0952C356.771 35.5441 357.201 35.3196 357.686 35.0445C357.974 34.8917 358.265 34.7447 358.557 34.598C362.406 32.6013 367.19 29.6265 368.757 25.3357C368.524 25.3167 368.524 25.3167 368.287 25.2973C365.546 25.0425 363.242 24.1691 361.112 22.3953C361.023 22.3262 360.934 22.257 360.842 22.1857C358.611 20.398 357.13 17.4017 356.701 14.6033C356.547 12.5115 356.53 10.4051 357.289 8.42844C357.353 8.25275 357.417 8.07707 357.483 7.89606C358.683 4.85145 361.094 2.44167 364.039 1.06107C367.205 -0.288026 370.776 -0.354138 373.985 0.875289C377.233 2.20544 379.573 4.65406 380.985 7.83835C382.923 12.5673 381.819 18.5454 379.908 23.1363C377.336 29.0847 372.704 33.4094 366.705 35.792C358.867 38.7762 358.867 38.7762 357.004 37.5476ZM373.342 28.3129C377.313 24.2919 379.213 18.6498 379.25 13.0688C379.224 10.1438 378.324 7.60905 376.255 5.48804C374.365 3.67842 371.854 2.69503 369.253 2.63034C366.31 2.73203 363.778 3.90477 361.755 6.03018C359.742 8.35144 359.196 10.9135 359.314 13.8993C359.511 16.3241 360.908 18.6553 362.687 20.2555C364.725 21.8713 366.78 22.4613 369.319 22.7543C369.488 22.7753 369.657 22.7963 369.832 22.818C369.98 22.8328 370.128 22.8476 370.28 22.8628C370.795 23.0228 370.961 23.2778 371.256 23.7185C371.665 24.5367 371.44 25.6438 371.192 26.4843C370.501 28.3506 369.25 29.8177 367.874 31.2165C367.749 31.3447 367.623 31.4728 367.493 31.6048C367.181 31.9186 366.867 32.2298 366.551 32.5397C366.404 32.6866 366.257 32.8335 366.11 32.9808C368.487 32.9808 371.722 29.8994 373.342 28.3129Z" fill="#D5AF7B"/>
</svg>
