<svg width="95" height="117" viewBox="0 0 95 117" fill="none" xmlns="http://www.w3.org/2000/svg">
<g clip-path="url(#clip0_3946_4)">
<path fill-rule="evenodd" clip-rule="evenodd" d="M76.5926 11.9085C75.5475 8.8987 70.7364 10.1659 71.7883 13.1958C72.8567 16.2733 75.3175 18.4631 78.2352 20.0795C71.8738 20.1318 65.5308 19.9002 59.2567 20.5052C54.1015 21.0022 49.0132 22.0875 43.9923 24.222C35.0022 28.1433 27.6668 33.2405 22.156 39.2295C15.6526 46.2977 11.6335 54.5509 10.0734 63.1892C7.17096 79.2623 12.8381 96.8606 27.4315 111.668C28.2741 112.551 29.6749 112.582 30.5575 111.74C31.4391 110.897 31.4717 109.496 30.6291 108.614C17.8323 94.7904 13.0765 78.8256 15.985 64.316C17.4975 56.7703 21.127 49.6697 26.7445 43.396C31.6955 37.8666 38.1319 32.9225 46.2044 29.0684C50.6377 26.9017 55.1935 25.7249 59.8221 25.0059C66.1882 24.0175 72.672 23.8593 79.1552 23.3681C76.0971 26.2167 73.9293 29.9996 74.2573 33.6334C74.5433 36.7961 79.5203 36.8036 79.231 33.6067C78.8657 29.5633 84.6583 24.0223 88.4519 23.7056C91.1616 23.4803 91.9219 19.5695 89.0651 18.8116C85.4243 17.8435 78.0174 16.0127 76.5926 11.9085Z" fill="#D5AF7B"/>
</g>
<defs>
<clipPath id="clip0_3946_4">
<rect width="95" height="117" fill="white"/>
</clipPath>
</defs>
</svg>
