<svg width="42" height="44" viewBox="0 0 42 44" fill="none" xmlns="http://www.w3.org/2000/svg">
<path fill-rule="evenodd" clip-rule="evenodd" d="M16.6177 12.9479C16.2213 12.0439 15.7809 12.022 15.4064 12.022C15.0758 12 14.7219 12 14.3474 12C13.9961 12 13.4008 12.1317 12.8945 12.6832C12.387 13.2333 11 14.5338 11 17.1993C11 19.8661 12.9384 22.4438 13.2032 22.7964C13.4666 23.1489 16.9483 28.7886 22.4576 30.9711C27.0396 32.7778 27.9655 32.4253 28.9573 32.3142C29.9479 32.2044 32.1523 31.015 32.6147 29.7365C33.055 28.4812 33.055 27.3796 32.9233 27.1588C32.7916 26.9393 32.4158 26.8062 31.8876 26.5196C31.3362 26.2561 28.6926 24.9337 28.1864 24.7567C27.6788 24.5811 27.3263 24.4933 26.9737 25.0215C26.6211 25.5729 25.5854 26.7843 25.2561 27.1369C24.9462 27.4894 24.6168 27.5333 24.0874 27.2686C23.5372 27.0051 21.7964 26.4317 19.7249 24.5811C18.1158 23.1476 17.0361 21.3642 16.7055 20.836C16.3982 20.2845 16.6616 19.9978 16.9483 19.7331C17.1911 19.4916 17.4998 19.0951 17.7645 18.7865C18.028 18.4765 18.1158 18.235 18.3147 17.8825C18.4903 17.5299 18.4025 17.1993 18.2708 16.9358C18.1377 16.6931 17.1033 14.0275 16.6177 12.9479Z" stroke="black" stroke-linejoin="round"/>
<path d="M4.58262 32.6186C2.24645 29.249 0.99578 25.2381 1.00001 21.1292C1.00001 10.0118 9.95392 1 21 1C32.0461 1 41 10.0118 41 21.1292C41 32.2466 32.0461 41.2584 21 41.2584C17.7322 41.2584 14.6504 40.4646 11.9261 39.0661L7.74001 40.8619L2.75914 43L3.70175 37.6334L4.58262 32.6186Z" stroke="black" stroke-miterlimit="10" stroke-linecap="round" stroke-linejoin="round"/>
</svg>
