<svg width="17" height="23" viewBox="0 0 17 23" fill="none" xmlns="http://www.w3.org/2000/svg">
<path d="M8.26923 22C12.3077 16.3462 15.5385 11.5 15.5385 8.26923C15.5385 6.34131 14.7726 4.49235 13.4094 3.12911C12.0461 1.76586 10.1972 1 8.26923 1C6.34131 1 4.49235 1.76586 3.12911 3.12911C1.76586 4.49235 1 6.34131 1 8.26923C1 11.5 4.23077 16.3462 8.26923 22Z" stroke="black"/>
<path d="M11.5006 8.26886C11.5006 9.12571 11.1602 9.94747 10.5543 10.5534C9.94844 11.1592 9.12668 11.4996 8.26983 11.4996C7.41298 11.4996 6.59122 11.1592 5.98533 10.5534C5.37945 9.94747 5.03906 9.12571 5.03906 8.26886C5.03906 7.412 5.37945 6.59024 5.98533 5.98436C6.59122 5.37847 7.41298 5.03809 8.26983 5.03809C9.12668 5.03809 9.94844 5.37847 10.5543 5.98436C11.1602 6.59024 11.5006 7.412 11.5006 8.26886Z" stroke="black"/>
</svg>
