<svg width="20" height="16" viewBox="0 0 20 16" fill="none" xmlns="http://www.w3.org/2000/svg">
<path d="M1.79556 16C1.2837 16 0.856667 15.824 0.514445 15.472C0.172222 15.12 0.000740741 14.6804 0 14.1531V1.84686C0 1.32038 0.171482 0.881143 0.514445 0.529143C0.857408 0.177143 1.28407 0.000761905 1.79444 0H18.2056C18.7167 0 19.1433 0.176381 19.4856 0.529143C19.8278 0.881904 19.9993 1.32114 20 1.84686V14.1543C20 14.68 19.8285 15.1192 19.4856 15.472C19.1426 15.8248 18.7159 16.0008 18.2056 16H1.79556ZM10 8.13257L1.11111 2.15429V14.1543C1.11111 14.3592 1.17519 14.5276 1.30333 14.6594C1.43148 14.7912 1.59556 14.8571 1.79556 14.8571H18.2056C18.4048 14.8571 18.5685 14.7912 18.6967 14.6594C18.8248 14.5276 18.8889 14.3589 18.8889 14.1531V2.15314L10 8.13257ZM10 6.85714L18.5467 1.14286H1.45333L10 6.85714ZM1.11111 2.15429V1.14286V14.1543C1.11111 14.3592 1.17519 14.5276 1.30333 14.6594C1.43148 14.7912 1.59556 14.8571 1.79556 14.8571H1.11111V2.15429Z" fill="black"/>
</svg>
