<svg width="42" height="42" viewBox="0 0 42 42" fill="none" xmlns="http://www.w3.org/2000/svg">
<path d="M33.3864 26.8252L40.0064 33.4452C40.2188 33.6566 40.3873 33.9078 40.5023 34.1846C40.6173 34.4613 40.6765 34.758 40.6765 35.0577C40.6765 35.3573 40.6173 35.6541 40.5023 35.9308C40.3873 36.2075 40.2188 36.4588 40.0064 36.6702C37.6785 38.9985 34.5888 40.4088 31.3047 40.6421C28.0205 40.8754 24.7625 39.916 22.1289 37.9402L18.1914 34.9852C13.8325 31.7161 9.96048 27.844 6.69136 23.4852L3.73636 19.5477C1.76048 16.9141 0.801092 13.656 1.03439 10.3719C1.2677 7.08773 2.67802 3.99801 5.00636 1.67017C5.21775 1.45777 5.46903 1.28922 5.74575 1.17421C6.02247 1.0592 6.31919 1 6.61886 1C6.91853 1 7.21525 1.0592 7.49197 1.17421C7.76869 1.28922 8.01997 1.45777 8.23136 1.67017L14.8514 8.29017C15.32 8.75899 15.5833 9.39476 15.5833 10.0577C15.5833 10.7206 15.32 11.3564 14.8514 11.8252L12.2989 14.3777C12.0996 14.5749 11.9681 14.8302 11.9232 15.107C11.8782 15.3837 11.9223 15.6675 12.0489 15.9177C15.0149 21.8508 19.8257 26.6616 25.7589 29.6277C26.009 29.7543 26.2928 29.7983 26.5696 29.7534C26.8463 29.7084 27.1016 29.5769 27.2989 29.3777L29.8489 26.8277C30.081 26.5952 30.3568 26.4108 30.6603 26.285C30.9638 26.1592 31.2891 26.0945 31.6176 26.0945C31.9461 26.0945 32.2715 26.1592 32.575 26.285C32.8785 26.4108 33.1542 26.5952 33.3864 26.8277V26.8252Z" stroke="black"/>
</svg>
