<svg width="59" height="56" viewBox="0 0 59 56" fill="none" xmlns="http://www.w3.org/2000/svg">
<path d="M45.1805 35.2429L53.1892 43.2516C53.4462 43.5074 53.6501 43.8113 53.7892 44.1461C53.9284 44.4809 54 44.8399 54 45.2024C54 45.5649 53.9284 45.9239 53.7892 46.2587C53.6501 46.5934 53.4462 46.8974 53.1892 47.1532C50.3731 49.97 46.6352 51.6761 42.6621 51.9584C38.689 52.2406 34.7474 51.08 31.5613 48.6896L26.7978 45.1147C21.5246 41.1598 16.8402 36.4754 12.8853 31.2022L9.3104 26.4387C6.92002 23.2526 5.75936 19.311 6.04161 15.3379C6.32385 11.3648 8.03004 7.62695 10.8468 4.81076C11.1026 4.5538 11.4066 4.3499 11.7413 4.21076C12.0761 4.07162 12.4351 4 12.7976 4C13.1601 4 13.5191 4.07162 13.8539 4.21076C14.1886 4.3499 14.4926 4.5538 14.7484 4.81076L22.7571 12.8195C23.3241 13.3867 23.6427 14.1558 23.6427 14.9578C23.6427 15.7598 23.3241 16.5289 22.7571 17.0961L19.6692 20.1841C19.4281 20.4227 19.269 20.7316 19.2147 21.0664C19.1603 21.4012 19.2136 21.7445 19.3667 22.0471C22.955 29.225 28.775 35.045 35.9528 38.6333C36.2555 38.7864 36.5988 38.8397 36.9336 38.7853C37.2684 38.731 37.5773 38.5719 37.8159 38.3308L40.9009 35.2459C41.1818 34.9647 41.5153 34.7416 41.8825 34.5894C42.2496 34.4372 42.6432 34.3588 43.0407 34.3588C43.4381 34.3588 43.8317 34.4372 44.1989 34.5894C44.566 34.7416 44.8996 34.9647 45.1805 35.2459V35.2429Z" stroke="black"/>
</svg>
