<svg width="45" height="40" viewBox="0 0 45 40" fill="none" xmlns="http://www.w3.org/2000/svg">
<path d="M44.6402 0.25353C44.4965 0.129318 44.3215 0.0467743 44.1343 0.0148317C43.947 -0.0171109 43.7545 0.00276398 43.5778 0.0723055L1.35865 16.5929C0.928262 16.7599 0.563839 17.0623 0.320307 17.4545C0.0767749 17.8467 -0.0326684 18.3074 0.00847258 18.7672C0.0496135 19.227 0.239109 19.6609 0.548398 20.0037C0.857688 20.3464 1.27001 20.5793 1.72322 20.6673L13.3352 22.9462V35.8277C13.3352 36.326 13.4841 36.813 13.7629 37.2262C14.0416 37.6393 14.4376 37.9596 14.8998 38.1461C15.1972 38.2654 15.5147 38.3269 15.8351 38.3273C16.1706 38.3266 16.5025 38.2583 16.811 38.1266C17.1195 37.9949 17.3983 37.8025 17.6309 37.5608L23.464 31.5199L32.422 39.3751C32.8761 39.7756 33.4601 39.9976 34.0656 40C34.3301 39.9988 34.5928 39.9574 34.8448 39.8771C35.2572 39.7466 35.6282 39.5101 35.9206 39.1914C36.213 38.8726 36.4168 38.4828 36.5114 38.0607L44.9735 1.27422C45.0159 1.08986 45.0073 0.897439 44.9486 0.717616C44.8898 0.537792 44.7832 0.377356 44.6402 0.25353ZM1.66905 18.6176C1.65684 18.5168 1.67954 18.4149 1.73337 18.3289C1.7872 18.2428 1.86891 18.1778 1.96488 18.1448L38.3488 3.90718L13.9748 21.3735L2.04612 19.0321C1.94501 19.0173 1.85217 18.9679 1.78341 18.8923C1.71466 18.8167 1.67424 18.7196 1.66905 18.6176ZM16.433 36.4026C16.3178 36.5213 16.1699 36.603 16.0081 36.6373C15.8463 36.6716 15.678 36.657 15.5245 36.5954C15.371 36.5337 15.2393 36.4278 15.1463 36.2911C15.0532 36.1544 15.0029 35.9931 15.0018 35.8277V24.1002L22.2057 30.4118L16.433 36.4026ZM34.8864 37.6816C34.8542 37.823 34.7856 37.9536 34.6874 38.0604C34.5892 38.1672 34.4648 38.2465 34.3266 38.2905C34.1883 38.3345 34.041 38.3416 33.8991 38.3112C33.7572 38.2807 33.6258 38.2138 33.5178 38.1169L15.5081 22.3254L42.9445 2.66569L34.8864 37.6816Z" fill="black"/>
</svg>
