<svg width="44" height="44" viewBox="0 0 44 44" fill="none" xmlns="http://www.w3.org/2000/svg">
    <path fill-rule="evenodd" clip-rule="evenodd" d="M16.9805 13.2541C16.5951 12.3752 16.1669 12.3538 15.8028 12.3538C15.4814 12.3325 15.1374 12.3325 14.7733 12.3325C14.4318 12.3325 13.853 12.4606 13.3608 12.9967C12.8674 13.5315 11.5189 14.7959 11.5189 17.3873C11.5189 19.98 13.4035 22.486 13.6609 22.8288C13.917 23.1716 17.3019 28.6545 22.658 30.7764C27.1127 32.5329 28.0129 32.1901 28.9772 32.0821C29.9402 31.9754 32.0834 30.819 32.5329 29.5761C32.961 28.3557 32.961 27.2847 32.8329 27.07C32.7049 26.8566 32.3395 26.7272 31.826 26.4485C31.2899 26.1924 28.7198 24.9067 28.2276 24.7347C27.7342 24.564 27.3914 24.4786 27.0487 24.9921C26.7059 25.5282 25.699 26.7059 25.3788 27.0487C25.0775 27.3914 24.7573 27.4341 24.2425 27.1767C23.7077 26.9206 22.0152 26.3631 20.0013 24.564C18.4369 23.1703 17.3873 21.4364 17.0659 20.9229C16.7671 20.3868 17.0232 20.108 17.3019 19.8507C17.538 19.6159 17.838 19.2304 18.0954 18.9304C18.3515 18.629 18.4369 18.3942 18.6303 18.0515C18.801 17.7087 18.7157 17.3873 18.5876 17.1312C18.4583 16.8951 17.4526 14.3037 16.9805 13.2541Z" stroke="black" stroke-linejoin="round"/>
    <path fill-rule="evenodd" clip-rule="evenodd" d="M16.9805 13.2541C16.5951 12.3752 16.1669 12.3538 15.8028 12.3538C15.4814 12.3325 15.1374 12.3325 14.7733 12.3325C14.4318 12.3325 13.853 12.4606 13.3608 12.9967C12.8674 13.5315 11.5189 14.7959 11.5189 17.3873C11.5189 19.98 13.4035 22.486 13.6609 22.8288C13.917 23.1716 17.3019 28.6545 22.658 30.7764C27.1127 32.5329 28.0129 32.1901 28.9772 32.0821C29.9402 31.9754 32.0834 30.819 32.5329 29.5761C32.961 28.3557 32.961 27.2847 32.8329 27.07C32.7049 26.8566 32.3395 26.7272 31.826 26.4485C31.2899 26.1924 28.7198 24.9067 28.2276 24.7347C27.7342 24.564 27.3914 24.4786 27.0487 24.9921C26.7059 25.5282 25.699 26.7059 25.3788 27.0487C25.0775 27.3914 24.7573 27.4341 24.2425 27.1767C23.7077 26.9206 22.0152 26.3631 20.0013 24.564C18.4369 23.1703 17.3873 21.4364 17.0659 20.9229C16.7671 20.3868 17.0232 20.108 17.3019 19.8507C17.538 19.6159 17.838 19.2304 18.0954 18.9304C18.3515 18.629 18.4369 18.3942 18.6303 18.0515C18.801 17.7087 18.7157 17.3873 18.5876 17.1312C18.4583 16.8951 17.4526 14.3037 16.9805 13.2541Z" stroke="black" stroke-linejoin="round"/>
</svg>