<svg width="38" height="40" viewBox="0 0 38 40" fill="none" xmlns="http://www.w3.org/2000/svg">
<path d="M18.9167 4.43115e-05C19.0296 0.00010796 19.0296 0.00010796 19.1447 0.000172895C23.7592 0.0120929 28.0748 1.66621 31.5375 4.7109C31.6075 4.77215 31.6775 4.8334 31.7496 4.89651C32.4748 5.53999 33.1184 6.2151 33.7222 6.97366C33.7735 7.03532 33.8248 7.09698 33.8777 7.1605C34.6428 8.08696 35.2717 9.11034 35.8289 10.1728C35.8603 10.2324 35.8917 10.2921 35.924 10.3536C38.2188 14.7827 38.556 20.0776 37.0743 24.8164C36.3508 27.0337 35.2612 29.0317 33.8003 30.8498C33.7634 30.8957 33.7266 30.9415 33.6886 30.9888C32.7909 32.0939 31.7927 33.1074 30.6477 33.9556C30.5308 34.0431 30.4163 34.1337 30.3019 34.2244C27.3145 36.5674 23.4515 37.8343 19.6775 37.9502C19.594 37.9534 19.594 37.9534 19.5088 37.9566C17.5053 38.0257 15.3768 37.8112 13.4826 37.1286C13.0109 37.0434 12.5159 37.1942 12.0613 37.319C11.9772 37.3416 11.9772 37.3416 11.8914 37.3645C11.7065 37.4142 11.5218 37.4644 11.3372 37.5147C11.2056 37.5501 11.0739 37.5856 10.9423 37.621C10.663 37.6962 10.3838 37.7716 10.1046 37.8473C9.6694 37.9652 9.234 38.0824 8.79857 38.1996C7.61672 38.5177 6.43516 38.8367 5.25504 39.1612C4.87925 39.2644 4.50332 39.3672 4.12738 39.4699C3.87787 39.5384 3.62866 39.6079 3.37944 39.6775C3.22987 39.7185 3.0803 39.7594 2.93071 39.8003C2.86589 39.8187 2.80108 39.8372 2.7343 39.8562C2.32563 39.9664 1.92086 40.0376 1.49728 39.9789C1.25344 39.8277 1.25344 39.8277 1.10714 39.5888C1.09154 39.0748 1.2584 38.5557 1.3921 38.0646C1.41317 37.9856 1.43424 37.9066 1.45595 37.8252C1.52523 37.5659 1.59522 37.3068 1.66522 37.0477C1.71376 36.8665 1.76225 36.6854 1.81071 36.5042C1.93809 36.0283 2.06607 35.5525 2.19419 35.0768C2.32427 34.5935 2.45383 34.11 2.5834 33.6266C2.72912 33.0829 2.87489 32.5391 3.02113 31.9956C3.0434 31.9127 3.06567 31.8299 3.08862 31.7445C3.12994 31.5908 3.1713 31.4372 3.21272 31.2835C3.26552 31.087 3.31778 30.8904 3.36991 30.6937C3.38632 30.6333 3.40272 30.5729 3.41963 30.5106C3.50963 30.2093 3.50963 30.2093 3.47975 29.9041C3.43353 29.8421 3.43353 29.8421 3.38637 29.7787C3.35197 29.7298 3.31757 29.6809 3.28213 29.6305C3.2242 29.5533 3.2242 29.5533 3.16509 29.4746C3.08393 29.3574 3.00328 29.2398 2.92309 29.1219C2.88082 29.0602 2.83855 28.9985 2.795 28.9349C1.275 26.6449 0.390996 23.8955 0.0927978 21.1745C0.0854994 21.112 0.078201 21.0496 0.0706814 20.9852C0.00216142 20.3354 -0.000907707 19.6862 0.000141289 19.0336C0.000214367 18.9749 0.000287447 18.9161 0.000362739 18.8555C0.0119501 14.5483 1.45452 10.2959 4.2282 6.97366C4.26519 6.92876 4.30218 6.88385 4.34029 6.83758C5.15453 5.85092 6.02594 4.95153 7.03716 4.16471C7.14941 4.07389 7.14941 4.07389 7.26392 3.98123C10.5775 1.34544 14.7016 -0.00893029 18.9167 4.43115e-05ZM13.8255 2.05799C13.7642 2.07676 13.703 2.09554 13.6399 2.11488C10.1689 3.20087 7.00816 5.44458 4.85242 8.37814C4.78538 8.46715 4.71832 8.55615 4.65125 8.64514C4.1617 9.30348 3.7539 9.99476 3.36991 10.7189C3.34317 10.7686 3.31643 10.8182 3.28888 10.8694C1.07788 14.9961 0.812786 19.8146 2.10312 24.2674C2.65279 26.0798 3.54196 27.8309 4.6796 29.3447C4.90593 29.6808 4.95486 29.8581 4.88156 30.2586C4.85423 30.3638 4.82595 30.4688 4.79694 30.5736C4.78137 30.6325 4.76579 30.6914 4.74974 30.7521C4.69698 30.9507 4.64301 31.1489 4.58908 31.3472C4.55143 31.4883 4.51387 31.6293 4.47638 31.7704C4.27216 32.5365 4.0634 33.3013 3.85456 34.0662C3.73196 34.5151 3.60973 34.9641 3.48763 35.4132C3.39644 35.7484 3.30454 36.0834 3.21212 36.4182C3.15402 36.6292 3.09647 36.8403 3.03904 37.0514C2.99887 37.1984 2.95802 37.3452 2.91717 37.492C2.89335 37.5799 2.86953 37.6679 2.84499 37.7585C2.82384 37.8354 2.80269 37.9123 2.7809 37.9916C2.72799 38.1938 2.72799 38.1938 2.82373 38.4184C3.73558 38.1763 4.64741 37.934 5.55921 37.6917C6.0655 37.5572 6.5718 37.4227 7.07811 37.2883C7.40525 37.2014 7.73236 37.1145 8.05947 37.0275C8.30189 36.9631 8.54435 36.8988 8.7868 36.8346C9.50737 36.6433 10.2271 36.4499 10.9446 36.2473C11.0639 36.2138 11.1832 36.1804 11.3025 36.1469C11.5167 36.0868 11.7303 36.0255 11.9439 35.9633C12.5996 35.7787 13.2302 35.645 13.8965 35.8569C13.9939 35.8862 13.9939 35.8862 14.0932 35.9161C14.161 35.9372 14.2287 35.9583 14.2985 35.98C15.5549 36.3465 16.8844 36.5866 18.195 36.6237C18.2498 36.6258 18.3047 36.6278 18.3613 36.6298C22.9303 36.7811 27.3068 35.1342 30.7185 32.1226C30.8191 32.0344 30.9211 31.9477 31.0233 31.8614C31.3321 31.6002 31.6023 31.3249 31.8633 31.0159C31.9595 30.9036 32.0586 30.7937 32.1602 30.6861C35.2765 27.3768 36.7091 22.8114 36.6315 18.3317C36.5232 14.7416 35.2804 11.2297 33.098 8.37814C33.0203 8.2757 33.0203 8.2757 32.941 8.17119C30.0808 4.49866 25.8924 2.06803 21.277 1.42403C18.7743 1.12107 16.2376 1.31135 13.8255 2.05799Z" fill="black"/>
<path d="M12.9368 8.81022C13.6518 9.26681 13.9313 9.99964 14.2075 10.7628C14.2483 10.8721 14.2892 10.9814 14.3302 11.0906C14.4153 11.3182 14.4994 11.5462 14.5826 11.7745C14.6886 12.0655 14.7968 12.3557 14.9058 12.6457C14.9902 12.8707 15.0737 13.0961 15.157 13.3216C15.1966 13.4287 15.2363 13.5357 15.2763 13.6426C15.8499 15.182 15.8499 15.182 15.5343 15.9467C15.2333 16.5312 14.8671 17.0727 14.4888 17.6093C14.3623 17.8219 14.3023 17.9635 14.2859 18.2095C14.4914 18.8474 15.0398 19.4095 15.4563 19.926C15.489 19.9671 15.5218 20.0081 15.5556 20.0504C16.4636 21.1809 17.4869 22.1887 18.6553 23.0471C18.7544 23.1215 18.8535 23.1958 18.9525 23.2702C19.05 23.3423 19.1477 23.4142 19.2454 23.486C19.29 23.5193 19.3347 23.5526 19.3806 23.5869C19.6283 23.765 19.8289 23.8954 20.1378 23.9054C20.3322 23.8387 20.3322 23.8387 20.5231 23.7201C20.5971 23.6772 20.6712 23.6344 20.7474 23.5902C21.0734 23.3897 21.3964 23.185 21.7162 22.9748C22.334 22.5692 22.334 22.5692 22.7274 22.5204C22.8087 22.509 22.8087 22.509 22.8916 22.4973C23.5838 22.5092 24.2473 22.803 24.8874 23.0401C24.9383 23.0589 24.9892 23.0777 25.0416 23.097C25.3109 23.1964 25.5799 23.2964 25.8487 23.3969C26.1237 23.4995 26.3994 23.6 26.6753 23.7C26.8899 23.7783 27.1039 23.8582 27.3177 23.9385C27.419 23.9762 27.5205 24.0133 27.6222 24.0498C28.3417 24.3085 29.0326 24.6425 29.446 25.3192C29.646 25.7571 29.6612 26.2838 29.5243 26.7415C29.3292 27.2315 29.0836 27.658 28.789 28.0944C28.722 28.1953 28.722 28.1953 28.6537 28.2981C28.5631 28.4342 28.4724 28.5701 28.3813 28.7058C28.2639 28.8822 28.1488 29.0598 28.0347 29.2383C27.3645 30.2827 26.6539 30.9791 25.4437 31.3521C23.4119 31.7277 21.0665 30.6259 19.2796 29.7574C19.2108 29.724 19.142 29.6907 19.0712 29.6563C16.7765 28.5294 14.7241 27.0284 12.9216 25.2186C12.7938 25.0906 12.665 24.9636 12.5361 24.8367C11.9476 24.2517 11.4296 23.6313 10.9307 22.9691C10.8571 22.8726 10.7835 22.7762 10.7099 22.6798C8.8511 20.2367 6.47457 16.2743 6.79531 13.0597C7.01143 11.9901 7.53034 11.1253 8.41684 10.4838C8.6591 10.324 8.90389 10.1694 9.15074 10.0167C9.23727 9.96235 9.3238 9.90802 9.41295 9.85205C9.58277 9.7456 9.7528 9.63951 9.92308 9.53381C10.1118 9.4165 10.2996 9.29805 10.4869 9.1785C11.2666 8.68582 12.0527 8.34369 12.9368 8.81022ZM11.3599 10.1871C11.2782 10.2398 11.1966 10.2926 11.1125 10.3469C11.0267 10.4037 10.941 10.4605 10.8527 10.519C10.7643 10.5769 10.6758 10.6347 10.5873 10.6925C10.4143 10.8058 10.2418 10.9197 10.0695 11.034C9.88084 11.1589 9.69133 11.2822 9.50094 11.4044C8.78234 11.8723 8.30365 12.3588 8.12176 13.2158C8.07352 13.7717 8.16236 14.2637 8.31683 14.7958C8.33783 14.8698 8.35883 14.9438 8.38047 15.02C9.56394 19.0911 11.9539 22.8204 15.2222 25.544C15.2614 25.5768 15.3005 25.6097 15.3409 25.6435C17.7013 27.6133 21.5755 30.2151 24.7798 30.0966C25.4219 30.0076 25.936 29.7584 26.38 29.2892C26.5878 29.0129 26.772 28.7239 26.9554 28.4309C27.0576 28.27 27.1598 28.1091 27.262 27.9481C27.3111 27.8704 27.3602 27.7926 27.4107 27.7125C27.532 27.5233 27.6566 27.3377 27.7851 27.1533C27.8185 27.1045 27.852 27.0557 27.8864 27.0054C27.9728 26.8802 28.0602 26.7558 28.1478 26.6315C28.2841 26.3333 28.2659 26.1682 28.1746 25.8561C27.9455 25.6454 27.6989 25.5465 27.4094 25.4391C27.3183 25.405 27.2271 25.3709 27.1332 25.3357C27.0341 25.2993 26.935 25.2628 26.8359 25.2264C26.7339 25.1884 26.6319 25.1505 26.5299 25.1125C26.3164 25.0331 26.1029 24.954 25.8892 24.8752C25.6157 24.7743 25.3423 24.6728 25.0691 24.5711C24.8079 24.474 24.5467 24.3771 24.2854 24.2803C24.2358 24.2618 24.1861 24.2434 24.1349 24.2244C23.994 24.1721 23.853 24.1201 23.712 24.0681C23.6318 24.0385 23.5517 24.0089 23.4691 23.9784C23.119 23.8395 23.119 23.8395 22.767 23.8975C22.7008 23.9355 22.6346 23.9735 22.5664 24.0127C22.4912 24.0556 22.416 24.0986 22.3384 24.1428C22.1135 24.2802 21.8934 24.4226 21.6737 24.5681C21.033 24.9911 20.5 25.3207 19.7099 25.202C18.8905 25.0009 18.2181 24.4113 17.563 23.9054C17.4888 23.8482 17.4147 23.7909 17.3383 23.732C15.8687 22.5602 13.2134 20.376 12.9594 18.3655C12.9031 17.3792 13.4878 16.6509 14.0252 15.8785C14.2543 15.5469 14.2543 15.5469 14.3639 15.1664C14.3367 15.0162 14.3367 15.0162 14.2764 14.8658C14.2553 14.8075 14.2341 14.7492 14.2122 14.6892C14.1884 14.6265 14.1647 14.5638 14.1402 14.4992C14.116 14.4334 14.0918 14.3677 14.0668 14.2999C13.9879 14.0861 13.9077 13.8728 13.8275 13.6595C13.7731 13.5137 13.7188 13.3678 13.6646 13.222C13.5322 12.8668 13.3987 12.512 13.2649 12.1573C13.2007 11.9866 13.1371 11.8158 13.0738 11.6448C12.9798 11.3911 12.8846 11.1378 12.7887 10.8847C12.7493 10.778 12.7493 10.778 12.7091 10.6691C12.5462 10.2197 12.5462 10.2197 12.1791 9.93865C11.8298 9.89936 11.6499 9.99758 11.3599 10.1871Z" fill="black"/>
<path d="M21.9807 9.55168C23.4172 9.84897 24.7556 10.513 25.8409 11.4993C25.8937 11.5411 25.9465 11.583 26.0009 11.6261C27.6455 12.9443 28.5603 15.1541 28.8059 17.1952C28.8183 17.3803 28.8264 17.5657 28.8303 17.7512C28.8347 17.8891 28.8347 17.8891 28.8392 18.0298C28.7994 18.338 28.7131 18.4616 28.4938 18.6777C28.2104 18.7742 28.0848 18.7827 27.8111 18.6582C27.5427 18.4494 27.4836 18.3206 27.4411 17.9816C27.4308 17.856 27.4209 17.7305 27.4112 17.6049C27.2215 15.5771 26.3877 13.77 24.8266 12.4356C23.5347 11.4281 22.0455 10.8807 20.4128 10.786C20.025 10.7574 19.8002 10.7021 19.5208 10.4069C19.4243 10.1235 19.4159 9.99792 19.5403 9.72419C20.0563 9.06068 21.2505 9.41239 21.9807 9.55168Z" fill="black"/>
<path d="M21.2643 12.6063C22.6917 12.9153 23.9682 13.725 24.7779 14.9586C25.375 15.9566 25.8252 17.1005 25.6826 18.2876C25.5319 18.5715 25.4443 18.6526 25.1412 18.7557C24.8568 18.7557 24.7374 18.6905 24.5122 18.5216C24.2758 18.2853 24.2943 17.9921 24.2537 17.6731C24.0783 16.459 23.6204 15.5656 22.6791 14.7648C21.9413 14.22 21.0911 13.9453 20.1817 13.8839C19.9338 13.8633 19.8437 13.8487 19.6306 13.7084C19.4893 13.4811 19.4459 13.3279 19.4404 13.0598C19.7983 12.2725 20.5465 12.4766 21.2643 12.6063Z" fill="black"/>
<path d="M21.2526 15.8686C21.8359 16.19 22.2979 16.7082 22.4864 17.3511C22.5575 17.7386 22.6163 18.0754 22.4717 18.4483C22.3193 18.6113 22.233 18.6942 22.0182 18.7556C21.7469 18.7443 21.599 18.7177 21.3876 18.5443C21.2166 18.3399 21.167 18.1894 21.1063 17.9314C21.0883 17.8573 21.0703 17.7831 21.0517 17.7068C21.0359 17.6409 21.0201 17.575 21.0039 17.5071C20.9524 17.261 20.9524 17.261 20.7533 17.1865C20.5358 17.117 20.32 17.0674 20.0968 17.0195C19.7019 16.9136 19.7019 16.9136 19.5019 16.6635C19.4363 16.3849 19.4365 16.2195 19.5214 15.9466C19.9214 15.4192 20.7318 15.6348 21.2526 15.8686Z" fill="black"/>
</svg>
