<svg width="51" height="51" viewBox="0 0 51 51" fill="none" xmlns="http://www.w3.org/2000/svg">
<path fill-rule="evenodd" clip-rule="evenodd" d="M20.2305 16.5041C19.8451 15.6252 19.4169 15.6038 19.0528 15.6038C18.7314 15.5825 18.3874 15.5825 18.0233 15.5825C17.6818 15.5825 17.103 15.7106 16.6108 16.2467C16.1174 16.7815 14.7689 18.0459 14.7689 20.6373C14.7689 23.23 16.6535 25.736 16.9109 26.0788C17.167 26.4216 20.5519 31.9045 25.908 34.0264C30.3627 35.7829 31.2629 35.4401 32.2272 35.3321C33.1902 35.2254 35.3334 34.069 35.7829 32.8261C36.211 31.6057 36.211 30.5347 36.0829 30.32C35.9549 30.1066 35.5895 29.9772 35.076 29.6985C34.5399 29.4424 31.9698 28.1567 31.4776 27.9847C30.9842 27.814 30.6414 27.7286 30.2987 28.2421C29.9559 28.7782 28.949 29.9559 28.6288 30.2987C28.3275 30.6414 28.0073 30.6841 27.4925 30.4267C26.9577 30.1706 25.2652 29.6131 23.2513 27.814C21.6869 26.4203 20.6373 24.6864 20.3159 24.1729C20.0171 23.6368 20.2732 23.358 20.5519 23.1007C20.788 22.8659 21.088 22.4804 21.3454 22.1804C21.6015 21.879 21.6869 21.6442 21.8803 21.3015C22.051 20.9587 21.9657 20.6373 21.8376 20.3812C21.7083 20.1451 20.7026 17.5537 20.2305 16.5041Z" stroke="black" stroke-linejoin="round"/>
</svg>
