<svg width="45" height="45" viewBox="0 0 45 45" fill="none" xmlns="http://www.w3.org/2000/svg">
<path fill-rule="evenodd" clip-rule="evenodd" d="M17.2305 13.5041C16.8451 12.6252 16.4169 12.6038 16.0528 12.6038C15.7314 12.5825 15.3874 12.5825 15.0233 12.5825C14.6818 12.5825 14.103 12.7106 13.6108 13.2467C13.1174 13.7815 11.7689 15.0459 11.7689 17.6373C11.7689 20.23 13.6535 22.736 13.9109 23.0788C14.167 23.4216 17.5519 28.9045 22.908 31.0264C27.3627 32.7829 28.2629 32.4401 29.2272 32.3321C30.1902 32.2254 32.3334 31.069 32.7829 29.8261C33.211 28.6057 33.211 27.5347 33.0829 27.32C32.9549 27.1066 32.5895 26.9772 32.076 26.6985C31.5399 26.4424 28.9698 25.1567 28.4776 24.9847C27.9842 24.814 27.6414 24.7286 27.2987 25.2421C26.9559 25.7782 25.949 26.9559 25.6288 27.2987C25.3275 27.6414 25.0073 27.6841 24.4925 27.4267C23.9577 27.1706 22.2652 26.6131 20.2513 24.814C18.6869 23.4203 17.6373 21.6864 17.3159 21.1729C17.0171 20.6368 17.2732 20.358 17.5519 20.1007C17.788 19.8659 18.088 19.4804 18.3454 19.1804C18.6015 18.879 18.6869 18.6442 18.8803 18.3015C19.051 17.9587 18.9657 17.6373 18.8376 17.3812C18.7083 17.1451 17.7026 14.5537 17.2305 13.5041Z" stroke="black" stroke-linejoin="round"/>
</svg>
