<svg width="66" height="76" viewBox="0 0 66 76" fill="none" xmlns="http://www.w3.org/2000/svg">
<path fill-rule="evenodd" clip-rule="evenodd" d="M2.84583 67.5586C0.346297 67.5476 0.0644563 63.6546 2.58066 63.6656C5.13635 63.6767 7.38693 64.9469 9.328 66.7018C7.75055 61.9668 5.96709 57.3176 4.82209 52.507C3.8812 48.5544 3.39391 44.5019 3.70254 40.2328C4.32896 32.5637 6.2486 25.8241 9.29372 20.2121C12.8877 13.5891 17.9925 8.50913 24.0077 5.15639C35.2004 -1.08167 49.7024 -1.34654 64.4009 5.72307C65.2701 6.12426 65.6495 7.15596 65.2483 8.02511C64.8465 8.89374 63.8154 9.27369 62.9463 8.87249C49.4347 2.88636 36.3767 3.41263 26.346 9.25794C21.1296 12.2977 16.7815 16.7958 13.5521 22.5593C10.7059 27.6389 8.67142 33.6725 7.86178 40.6435C7.37999 44.4845 7.66401 48.1649 8.30633 51.7832C9.19016 56.7595 10.72 61.6122 12.0026 66.5491C13.3401 63.5556 15.5971 60.9854 18.3776 60.3056C20.7977 59.7143 22.0678 63.4065 19.6214 64.004C16.5275 64.7602 13.8864 70.4676 14.6153 73.3637C15.1365 75.4322 12.4269 76.9902 11.1385 75.0623C9.49493 72.606 6.25415 67.5734 2.84583 67.5586Z" fill="#D5AF7B"/>
</svg>
