<svg width="17" height="9" viewBox="0 0 17 9" fill="none" xmlns="http://www.w3.org/2000/svg">
<path d="M15.82 0.201797L8.49925 7.37469L1.17848 0.201797C1.04769 0.0733714 0.8721 0.00147216 0.689257 0.00147216C0.506414 0.00147216 0.330827 0.0733714 0.200034 0.201797C0.136702 0.264169 0.0863884 0.338615 0.0520402 0.420776C0.0176921 0.502938 0 0.591163 0 0.680284C0 0.769405 0.0176921 0.857629 0.0520402 0.939791C0.0863884 1.02195 0.136702 1.0964 0.200034 1.15877L7.98806 8.79101C8.12482 8.92501 8.30826 9 8.49925 9C8.69024 9 8.87368 8.92501 9.01045 8.79101L16.7985 1.16024C16.8622 1.09783 16.9129 1.0232 16.9476 0.940762C16.9822 0.858328 17 0.769759 17 0.680284C17 0.590809 16.9822 0.502239 16.9476 0.419805C16.9129 0.337371 16.8622 0.262743 16.7985 0.200324C16.6677 0.0718986 16.4921 0 16.3092 0C16.1264 0 15.9508 0.0718986 15.82 0.200324V0.201797Z" fill="white"/>
</svg>
