<svg width="44" height="44" viewBox="0 0 44 44" fill="none" xmlns="http://www.w3.org/2000/svg">
<path d="M1.13639 12.2184C1.23977 9.95927 1.59351 8.50224 2.07189 7.26546L2.07832 7.24837C2.55237 5.98984 3.29499 4.84973 4.25449 3.90739L4.26795 3.89417L4.28117 3.8807C5.2243 2.91997 6.36481 2.17808 7.62224 1.70529L7.64394 1.69699C8.87789 1.21712 10.3321 0.864698 12.5931 0.76133M1.13639 12.2184C1.0277 14.6322 1 15.3804 1 21.6388C1 27.8988 1.02618 28.6452 1.13633 31.0596M1.13639 12.2184L1.13638 12.8273M2.08029 36.0305C2.55308 37.2879 3.29497 38.4284 4.2557 39.3715L4.26914 39.3847L4.28235 39.3982C5.22474 40.3577 6.36488 41.1003 7.62343 41.5744L7.64222 41.5815C8.8773 42.0605 10.3322 42.413 12.5931 42.5164M2.08029 36.0305L2.07199 36.0088C1.59212 34.7748 1.2397 33.3206 1.13633 31.0596M2.08029 36.0305L2.05194 35.8812M1.13633 31.0596L1.17335 31.2545M1.13633 31.0596L1.13633 30.4492M2.05194 35.8812L1.17335 31.2545M2.05194 35.8812C1.6788 34.8953 1.29455 33.52 1.17335 31.2545M2.05194 35.8812C2.06503 35.9158 2.0781 35.9499 2.09116 35.9835C2.56438 37.2592 3.31417 38.4143 4.28665 39.3659C5.23783 40.3382 6.39252 41.0878 7.66781 41.561C8.69125 41.9597 10.1334 42.3763 12.5928 42.489C15.0747 42.602 15.8415 42.625 22.0138 42.625C28.1862 42.625 28.9536 42.6019 31.4356 42.489C33.898 42.3761 35.3384 41.9572 36.3583 41.5616C37.6343 41.0887 38.7896 40.3387 39.7411 39.3658C40.7133 38.4147 41.4629 37.2601 41.936 35.9848C42.3347 34.9614 42.7513 33.5193 42.864 31.0599C42.977 28.578 43 27.8096 43 21.6388C43 15.4681 42.9769 14.6991 42.864 12.2171C42.7505 9.7418 42.3278 8.29925 41.9304 7.2785C41.4109 5.93739 40.7521 4.92309 39.7395 3.91045C38.7289 2.90182 37.7173 2.24264 36.3752 1.72262C35.3508 1.32213 33.9073 0.901993 31.4356 0.788722C31.2207 0.77894 31.0186 0.769832 30.8247 0.761354M1.17335 31.2545C1.16993 31.1906 1.16672 31.126 1.16372 31.0606C1.15393 30.8455 1.14482 30.6432 1.13633 30.4492M12.5931 0.76133C15.0075 0.651175 15.7554 0.625 22.0138 0.625C28.2722 0.625 29.0199 0.65267 31.4336 0.761355M12.5931 0.76133L13.2035 0.761331M31.4336 0.761355L30.8247 0.761354M31.4336 0.761355C33.6931 0.864701 35.1504 1.21838 36.3873 1.69681L36.4043 1.70332C37.6629 2.17737 38.803 2.91999 39.7453 3.87949L39.7584 3.89282L39.7717 3.9059C40.7314 4.84833 41.4739 5.98875 41.9476 7.24764L41.9557 7.26894C42.4356 8.50289 42.788 9.95707 42.8914 12.2181M13.2035 0.761331L30.8247 0.761354M13.2035 0.761331C15.248 0.671937 16.3779 0.652696 22.0138 0.652696C27.6502 0.652696 28.7799 0.671941 30.8247 0.761354M13.2035 0.761331C13.0095 0.769815 12.8072 0.778931 12.5921 0.788722C10.1296 0.901572 8.68923 1.32052 7.66941 1.71607C6.3886 2.19086 5.22943 2.94464 4.2759 3.92281C3.2727 4.93013 2.61606 5.93958 2.0977 7.27735C1.69718 8.30173 1.27697 9.74594 1.16369 12.2178C1.15393 12.4322 1.14484 12.6338 1.13638 12.8273M42.8914 31.0596C42.788 33.3205 42.4356 34.7754 41.9566 36.0105L41.9494 36.0293C41.4753 37.2879 40.7327 38.428 39.7732 39.3703L39.7597 39.3835L39.7465 39.397C38.8034 40.3577 37.6629 41.0996 36.4055 41.5724L36.3838 41.5807C35.1498 42.0606 33.6956 42.413 31.4346 42.5164M1.13633 30.4492C1.04694 28.4047 1.0277 27.2748 1.0277 21.6388C1.0277 16.0012 1.04692 14.8728 1.13638 12.8273M1.13633 30.4492L1.13638 12.8273M18.2764 30.6619C19.4613 31.1527 20.7313 31.4053 22.0139 31.4053C24.6041 31.4053 27.0882 30.3763 28.9198 28.5448C30.7514 26.7132 31.7803 24.2291 31.7803 21.6388C31.7803 19.0486 30.7514 16.5645 28.9198 14.7329C27.0882 12.9014 24.6041 11.8724 22.0139 11.8724C20.7313 11.8724 19.4613 12.125 18.2764 12.6158C17.0915 13.1066 16.0148 13.826 15.1079 14.7329C14.201 15.6398 13.4816 16.7165 12.9908 17.9014C12.5 19.0863 12.2474 20.3563 12.2474 21.6388C12.2474 22.9214 12.5 24.1914 12.9908 25.3763C13.4816 26.5612 14.201 27.6379 15.1079 28.5448C16.0148 29.4517 17.0915 30.1711 18.2764 30.6619ZM15.0862 14.7112C16.9235 12.8738 19.4155 11.8416 22.0139 11.8416C24.6122 11.8416 27.1042 12.8738 28.9415 14.7112C30.7789 16.5485 31.8111 19.0405 31.8111 21.6388C31.8111 24.2372 30.7789 26.7292 28.9415 28.5665C27.1042 30.4039 24.6122 31.4361 22.0139 31.4361C19.4155 31.4361 16.9235 30.4039 15.0862 28.5665C13.2488 26.7292 12.2166 24.2372 12.2166 21.6388C12.2166 19.0405 13.2488 16.5485 15.0862 14.7112ZM37.3278 9.5606C37.3278 10.3043 37.0324 11.0176 36.5065 11.5434C35.9807 12.0693 35.2674 12.3647 34.5237 12.3647C33.78 12.3647 33.0667 12.0693 32.5409 11.5434C32.015 11.0176 31.7195 10.3043 31.7195 9.5606C31.7195 8.81689 32.015 8.10364 32.5409 7.57776C33.0667 7.05188 33.78 6.75644 34.5237 6.75644C35.2674 6.75644 35.9807 7.05188 36.5065 7.57776C37.0324 8.10364 37.3278 8.81689 37.3278 9.5606Z" stroke="black" stroke-linejoin="round"/>
</svg>
