<svg width="44" height="44" viewBox="0 0 44 44" fill="none" xmlns="http://www.w3.org/2000/svg">
<path d="M22 12.32C20.0855 12.32 18.2139 12.8877 16.6221 13.9514C15.0302 15.015 13.7895 16.5268 13.0568 18.2956C12.3242 20.0644 12.1325 22.0107 12.506 23.8885C12.8795 25.7662 13.8014 27.491 15.1552 28.8448C16.509 30.1986 18.2338 31.1205 20.1115 31.494C21.9893 31.8675 23.9356 31.6758 25.7044 30.9432C27.4732 30.2105 28.985 28.9698 30.0486 27.3779C31.1123 25.7861 31.68 23.9145 31.68 22C31.6771 19.4336 30.6563 16.9731 28.8416 15.1584C27.0269 13.3437 24.5664 12.3229 22 12.32ZM22 29.92C20.4336 29.92 18.9023 29.4555 17.5999 28.5852C16.2974 27.715 15.2823 26.478 14.6829 25.0309C14.0834 23.5837 13.9266 21.9912 14.2322 20.4549C14.5378 18.9186 15.2921 17.5073 16.3997 16.3997C17.5073 15.2921 18.9186 14.5378 20.4549 14.2322C21.9912 13.9266 23.5837 14.0834 25.0309 14.6829C26.478 15.2823 27.715 16.2974 28.5852 17.5999C29.4555 18.9023 29.92 20.4336 29.92 22C29.92 24.1005 29.0856 26.115 27.6003 27.6003C26.115 29.0856 24.1005 29.92 22 29.92ZM32.56 0H11.44C8.407 0.00349358 5.49922 1.2099 3.35456 3.35456C1.2099 5.49922 0.00349358 8.407 0 11.44V32.56C0.00349358 35.593 1.2099 38.5008 3.35456 40.6454C5.49922 42.7901 8.407 43.9965 11.44 44H32.56C35.593 43.9965 38.5008 42.7901 40.6454 40.6454C42.7901 38.5008 43.9965 35.593 44 32.56V11.44C43.9965 8.407 42.7901 5.49922 40.6454 3.35456C38.5008 1.2099 35.593 0.00349358 32.56 0ZM42.24 32.56C42.2371 35.1264 41.2163 37.5869 39.4016 39.4016C37.5869 41.2163 35.1264 42.2371 32.56 42.24H11.44C8.8736 42.2371 6.41314 41.2163 4.59842 39.4016C2.7837 37.5869 1.76291 35.1264 1.76 32.56V11.44C1.76291 8.8736 2.7837 6.41314 4.59842 4.59842C6.41314 2.7837 8.8736 1.76291 11.44 1.76H32.56C35.1264 1.76291 37.5869 2.7837 39.4016 4.59842C41.2163 6.41314 42.2371 8.8736 42.24 11.44V32.56ZM35.2 10.56C35.2 10.9081 35.0968 11.2484 34.9034 11.5378C34.71 11.8272 34.4351 12.0528 34.1135 12.186C33.7919 12.3192 33.438 12.3541 33.0966 12.2862C32.7552 12.2183 32.4416 12.0506 32.1955 11.8045C31.9494 11.5584 31.7817 11.2448 31.7138 10.9034C31.6459 10.562 31.6808 10.2081 31.814 9.88648C31.9472 9.56488 32.1728 9.29 32.4622 9.09661C32.7516 8.90322 33.0919 8.8 33.44 8.8C33.9068 8.8 34.3544 8.98543 34.6845 9.31549C35.0146 9.64556 35.2 10.0932 35.2 10.56Z" fill="black"/>
</svg>
