<svg width="39" height="39" viewBox="0 0 39 39" fill="none" xmlns="http://www.w3.org/2000/svg">
<path d="M19.5 10.92C17.803 10.92 16.1442 11.4232 14.7332 12.366C13.3222 13.3088 12.2225 14.6488 11.5731 16.2166C10.9237 17.7844 10.7538 19.5095 11.0849 21.1739C11.4159 22.8382 12.2331 24.367 13.433 25.567C14.633 26.7669 16.1618 27.5841 17.8261 27.9151C19.4905 28.2462 21.2156 28.0763 22.7834 27.4269C24.3512 26.7775 25.6912 25.6778 26.634 24.2668C27.5768 22.8558 28.08 21.197 28.08 19.5C28.0774 17.2252 27.1726 15.0444 25.5641 13.4359C23.9556 11.8274 21.7748 10.9226 19.5 10.92ZM19.5 26.52C18.1116 26.52 16.7543 26.1083 15.5999 25.3369C14.4455 24.5655 13.5457 23.4692 13.0144 22.1864C12.483 20.9037 12.344 19.4922 12.6149 18.1305C12.8858 16.7687 13.5543 15.5179 14.5361 14.5361C15.5179 13.5543 16.7687 12.8858 18.1305 12.6149C19.4922 12.344 20.9037 12.483 22.1864 13.0144C23.4692 13.5457 24.5655 14.4455 25.3369 15.5999C26.1083 16.7543 26.52 18.1116 26.52 19.5C26.52 21.3618 25.7804 23.1474 24.4639 24.4639C23.1474 25.7804 21.3618 26.52 19.5 26.52ZM28.86 0H10.14C7.45166 0.00309658 4.87431 1.07241 2.97336 2.97336C1.07241 4.87431 0.00309658 7.45166 0 10.14V28.86C0.00309658 31.5483 1.07241 34.1257 2.97336 36.0266C4.87431 37.9276 7.45166 38.9969 10.14 39H28.86C31.5483 38.9969 34.1257 37.9276 36.0266 36.0266C37.9276 34.1257 38.9969 31.5483 39 28.86V10.14C38.9969 7.45166 37.9276 4.87431 36.0266 2.97336C34.1257 1.07241 31.5483 0.00309658 28.86 0ZM37.44 28.86C37.4374 31.1348 36.5326 33.3156 34.9241 34.9241C33.3156 36.5326 31.1348 37.4374 28.86 37.44H10.14C7.86523 37.4374 5.68438 36.5326 4.07587 34.9241C2.46737 33.3156 1.56258 31.1348 1.56 28.86V10.14C1.56258 7.86523 2.46737 5.68438 4.07587 4.07587C5.68438 2.46737 7.86523 1.56258 10.14 1.56H28.86C31.1348 1.56258 33.3156 2.46737 34.9241 4.07587C36.5326 5.68438 37.4374 7.86523 37.44 10.14V28.86ZM31.2 9.36C31.2 9.66854 31.1085 9.97015 30.9371 10.2267C30.7657 10.4832 30.522 10.6832 30.237 10.8013C29.9519 10.9193 29.6383 10.9502 29.3357 10.89C29.033 10.8298 28.7551 10.6813 28.5369 10.4631C28.3187 10.2449 28.1702 9.96695 28.11 9.66434C28.0498 9.36173 28.0807 9.04807 28.1987 8.76301C28.3168 8.47796 28.5168 8.23432 28.7733 8.06291C29.0298 7.89149 29.3315 7.8 29.64 7.8C30.0537 7.8 30.4505 7.96436 30.7431 8.25691C31.0356 8.54947 31.2 8.94626 31.2 9.36Z" fill="black"/>
</svg>
