<svg width="29" height="42" viewBox="0 0 29 42" fill="none" xmlns="http://www.w3.org/2000/svg">
<path d="M14.6298 40.375C22.2019 29.774 28.2596 20.6875 28.2596 14.6298C28.2596 11.015 26.8236 7.54816 24.2675 4.99208C21.7114 2.43599 18.2447 1 14.6298 1C11.015 1 7.54816 2.43599 4.99208 4.99208C2.43599 7.54816 1 11.015 1 14.6298C1 20.6875 7.05769 29.774 14.6298 40.375Z" stroke="black"/>
<path d="M20.6857 14.6291C20.6857 16.2357 20.0475 17.7765 18.9114 18.9125C17.7754 20.0486 16.2346 20.6868 14.628 20.6868C13.0214 20.6868 11.4806 20.0486 10.3446 18.9125C9.20853 17.7765 8.57031 16.2357 8.57031 14.6291C8.57031 13.0225 9.20853 11.4817 10.3446 10.3457C11.4806 9.20963 13.0214 8.57141 14.628 8.57141C16.2346 8.57141 17.7754 9.20963 18.9114 10.3457C20.0475 11.4817 20.6857 13.0225 20.6857 14.6291Z" stroke="black"/>
</svg>
