<svg width="42" height="42" viewBox="0 0 42 42" fill="none" xmlns="http://www.w3.org/2000/svg">
<path d="M33.6504 27.0357L40.3244 33.7097C40.5385 33.9228 40.7084 34.1761 40.8244 34.4551C40.9403 34.7341 41 35.0332 41 35.3353C41 35.6374 40.9403 35.9366 40.8244 36.2156C40.7084 36.4945 40.5385 36.7479 40.3244 36.961C37.9775 39.3083 34.8626 40.7301 31.5517 40.9653C28.2408 41.2005 24.9562 40.2333 22.3011 38.2413L18.3315 35.2622C13.9372 31.9665 10.0335 28.0628 6.73776 23.6685L3.75867 19.6989C1.76668 17.0438 0.79947 13.7592 1.03467 10.4483C1.26988 7.13736 2.6917 4.02246 5.03902 1.67564C5.25214 1.4615 5.50546 1.29158 5.78444 1.17563C6.06342 1.05969 6.36255 1 6.66467 1C6.96678 1 7.26592 1.05969 7.5449 1.17563C7.82387 1.29158 8.0772 1.4615 8.29031 1.67564L14.9643 8.34961C15.4368 8.82225 15.7022 9.4632 15.7022 10.1315C15.7022 10.7998 15.4368 11.4408 14.9643 11.9134L12.391 14.4867C12.1901 14.6856 12.0575 14.943 12.0122 15.222C11.9669 15.501 12.0113 15.7871 12.1389 16.0393C15.1292 22.0208 19.9792 26.8708 25.9607 29.8611C26.2129 29.9887 26.499 30.0331 26.778 29.9878C27.057 29.9425 27.3144 29.8099 27.5133 29.609L30.0841 27.0382C30.3181 26.8039 30.5961 26.618 30.9021 26.4912C31.208 26.3643 31.536 26.299 31.8672 26.299C32.1984 26.299 32.5264 26.3643 32.8324 26.4912C33.1383 26.618 33.4163 26.8039 33.6504 27.0382V27.0357Z" stroke="black" stroke-width="1.5"/>
</svg>
