<svg xmlns="http://www.w3.org/2000/svg" width="194" height="59" fill="none"><g clip-path="url(#a)"><mask id="b" width="201" height="201" x="-3" y="-77" maskUnits="userSpaceOnUse" style="mask-type:luminance"><path fill="#fff" d="M-3-77h201v200.711H-3z"/></mask><g fill="#565A5B" mask="url(#b)"><path d="M13.309 17.982c.499-.658.74-1.253 1.956-.906.258.1.878 5.073.978 5.394.049.413.142.61-.092.807-1.447.288-1.873.11-2.53-1.629-.898-2.253-2.624-4.125-2.964-1.854-.048 1.88 4.998 9.332 5.338 10.866.967 2.314 1.193 6.525-.546 8.36-1.545 1.897-3.61 1.661-5.458.65q-.184 0-.298.27c-.105.455-1.11.705-1.567.432-.214-.08-.797-4.986-.886-5.274a22 22 0 0 1-.141-.963c-.061-.669 1.934-.389 1.956-.141.848 1.843 2.094 5.98 3.792 4.332.977-1.866-1.013-3.856-1.934-5.691-2.386-4.094-3.966-6.056-4.098-10.123-.21-3.925 2.916-7.208 6.494-4.53M30.006 23.646c.344.519 3.604 15.136 4.492 14.848.522.399.314.744.306 1.655q-.044.35-.611.349c-.062-.029-6.448.1-6.21-.116-.476-2.34.524-1.31.742-2.31q0-.101-.03-.246l-2.036-7.327-.493 1.094v5.927c-.114.932.97.927.93 1.86-.045.74.064 1.091-.683 1.118-.178-.04-6.645.135-6.557-.139-.652-2.325.79-1.428.901-2.677V20.258c.097-.997-1.18-.929-1.018-1.901.093-.933-.225-1.233.495-1.292h6.63c.85-.115.33 1.81.422 1.734-.217.422-1.25.74-1.12 1.328v7.439l3.159-7.195c.234-.673.5-.898-.088-1.332-.578-.147-.884-1.933-.118-1.974.23.058 4.235-.147 4.273.13.101.622.307 1.725-.61 1.902-.834.044-2.337 3.997-2.776 4.55M45.515 20.386c.217-2.387-2.38-2.226-2.339-.258.13.394-.338 19.017.344 18.615.849 1.129 2.098-.072 1.995-1.168zm-1.134-3.395c9.638.136 9.678 23.843-.114 23.764-9.627 0-9.497-23.836.114-23.764M60.833 18.781v9.758c1.675.166 2.365-.322 2.377-2.881v-4.662c.07-1.729-.812-2.342-2.377-2.215m0 11.437v7.18q-.001.507.064.68c.22.365.832.558.747 1.188-.048.875.055 1.186-.709 1.23h-6.12c-.705.117-.512-1.436-.477-1.686.396-.536 1.176-.589 1.087-1.543V20.302c.084-.92-.621-1.07-1.13-1.374-.202-.384-.087-1.986.521-1.797 3.143.342 9.926-1.111 12.287 1.795 3.137 3.005 2.424 9.388-2.516 10.438 4.4.74 4.124 4.993 4.016 8.527-.029.671.807.729.725 1.447-.068.887.153 1.124-.637 1.158h-3.886q-.696 0-1.145-.789c-.831-1.153-.314-6.386-.45-7.781.08-1.47-1.12-1.825-2.377-1.708"/><path d="M80.437 20.386c.217-2.387-2.38-2.226-2.339-.258.13.394-.338 19.017.344 18.615.849 1.129 2.098-.072 1.995-1.168zm-1.134-3.395c9.637.136 9.678 23.843-.114 23.764-9.627 0-9.497-23.836.114-23.764M104.698 17.995c.505-.666.749-1.268 1.979-.917.262.102.888 5.134.99 5.457.049.418.143.619-.094.817-1.464.292-1.895.111-2.56-1.648-.908-2.28-2.654-4.173-2.998-1.876-.049 1.903 5.057 9.442 5.4 10.994.979 2.342 1.208 6.602-.552 8.458-1.563 1.92-3.652 1.681-5.522.659q-.187 0-.302.272c-.106.46-1.122.714-1.585.437-.217-.08-.806-5.044-.896-5.336q-.144-.916-.143-.973c-.062-.678 1.957-.394 1.979-.144.858 1.865 2.119 6.051 3.837 4.383.988-1.887-1.026-3.9-1.958-5.758-2.413-4.142-4.012-6.127-4.146-10.242-.211-3.971 2.951-7.292 6.571-4.583M118.814 31.371c.029-.32 2.298-11.213 2.264-11.518.184-.728-1.365-.919-1.192-1.582.059-.563-.183-1.216.421-1.21.114.052 3.998-.143 3.893.137.398 2.584-.752 1.233-1.026 3.378l-3.786 18.872-.233 1.148q-.029.16-.305.16c-.207-.016-3.193.142-3.211-.175-.68-1.061-3.449-20.84-4.779-21.487-.575-.242-.398-.668-.393-1.168-.029-.314-.068-.896.335-.865h6.611c.537.19.276.578.306 1.44q-.03.187-.305.317c-.56.251-.733.773-.597 1.333zM129.418 22.47l-1.643 11.349h3.234zm1.74 13.018h-3.624l-.169 1.336c-.75 1.91 1.154 1.331 1.062 2.832-.051.583.112.803-.377.842h-3.827c-.627-.173-.253-1.646.19-1.96.96-.493 3.046-17.829 3.319-18.731.042-.648-1.042-.706-.919-1.569.069-.802-.16-1.126.552-1.176.557.188 6.213-.48 6.265.479 1.13 3.304 1.847 18 3.827 21.055.34.3.284.265.305.828-.054.745.108 1.029-.536 1.074h-6.459c-.552-.112-.326-1.715.202-1.83.999-.876.326-1.366.189-3.18M146.325 18.79v20.112c1.994.248 2.376-.986 2.342-3.079v-14.84c.06-1.458-.921-2.403-2.342-2.192m-5.409 18.485V19.691c-.002-.395-.896-.444-1.032-.777-.228-.73-.389-2.086 1.032-1.851 3.613.258 9.634-1.227 11.902 2.744 2.542 3.073 2.649 14.445.066 17.81-2.289 4.3-8.867 2.552-12.681 2.882-.802.14-.542-1.27-.523-1.612.397-.465 1.364-.81 1.236-1.612M163.744 27.906v10.91c3.371.11 2.156-2.565 2.428-5.462-.002-.37-.035-4.286-.219-4.63-.268-.914-1.387-.832-2.209-.818m0-9.333v7.668c2.824.43 2.434-2.142 2.472-4.324.02-2.462-.259-3.554-2.472-3.344m3.832 8.486q2.677.935 3.687 2.315c1.719 2.269 1.142 7.649-.849 9.311-2.199 2.64-9.586 1.627-12.901 1.811-.659.06-.384-.957-.439-1.329.106-.704 1.394-.82 1.229-1.694v-17.63c.127-.761-.797-.665-1.163-1.198-.043-.41-.273-1.877.636-1.723h8.016c6.837-.439 8.31 8.601 1.784 10.137M179.81 22.364l-1.652 11.415h3.252zm1.751 13.095h-3.647l-.169 1.343c-.754 1.922 1.16 1.34 1.068 2.849-.051.587.113.807-.379.847h-3.849c-.631-.174-.256-1.656.191-1.972.966-.495 3.064-17.933 3.338-18.84.042-.653-1.048-.71-.925-1.579.07-.806-.16-1.133.556-1.183.56.19 6.249-.484 6.302.481 1.136 3.324 1.858 18.106 3.849 21.18.342.301.285.267.307.832-.054.75.108 1.036-.539 1.08h-6.497q-.292 0-.291-.554c.023-2.413 1.668-.072.685-4.484"/></g><path fill="#565A5B" d="M77.21 53.194h.475q.02.21.07.349a.89.89 0 0 0 .457.48 1 1 0 0 0 .395.082.84.84 0 0 0 .627-.249.86.86 0 0 0 .25-.633q0-.421-.3-.635-.214-.147-.69-.288a5 5 0 0 1-.543-.193 1.2 1.2 0 0 1-.284-.202.9.9 0 0 1-.231-.346 1.2 1.2 0 0 1-.083-.442q0-.522.346-.855.35-.337.885-.337.545 0 .888.33.342.332.354.87h-.463a.86.86 0 0 0-.24-.576.74.74 0 0 0-.55-.217.74.74 0 0 0-.551.22.75.75 0 0 0-.217.553q0 .153.055.29a.6.6 0 0 0 .153.226q.09.076.22.132.131.056.436.146.334.1.507.176.175.075.32.179.207.157.321.407.118.25.118.539 0 .565-.381.94-.38.375-.958.375-.598 0-.976-.36-.378-.363-.41-.96m3.313 1.242v-4.432h.443v4.432zm1.354 0v-4.432h.598l2.484 3.676v-3.676h.445v4.432h-.445l-2.64-3.9v3.9zm8.17-1.163h.493q-.67 1.242-2.027 1.242-.49 0-.923-.175a2.3 2.3 0 0 1-.741-.478 2.304 2.304 0 0 1-.665-1.629q0-.653.296-1.18.298-.53.823-.83.527-.298 1.178-.298.688 0 1.236.33t.805.9h-.498a2 2 0 0 0-.24-.325 1.4 1.4 0 0 0-.27-.217 1.86 1.86 0 0 0-1.013-.281q-.393 0-.738.146a1.8 1.8 0 0 0-.595.396 1.8 1.8 0 0 0-.39.597q-.143.349-.143.745a1.9 1.9 0 0 0 .548 1.338 1.9 1.9 0 0 0 1.324.551q.31 0 .6-.1.294-.098.522-.284.213-.178.419-.448m1.21 1.163v-4.432h2.424v.401H91.7v1.588h1.915v.404H91.7v1.638h1.98v.401zm9.616 0v-.401l1.553-1.5q.287-.276.354-.346.07-.07.173-.196.314-.364.314-.741a.88.88 0 0 0-.273-.665.95.95 0 0 0-.688-.261 1 1 0 0 0-.522.14.85.85 0 0 0-.337.381q-.102.217-.102.59h-.437q0-.235.018-.361.02-.13.079-.287.154-.404.498-.633.345-.231.809-.231.606 0 1.001.38.396.382.396.97 0 .357-.173.656-.173.297-.641.742l-1.424 1.362h2.215v.401zm3.302-1.614v-1.26q0-.405.079-.68.082-.278.264-.489.193-.228.486-.348t.653-.12q.408 0 .73.16a1.32 1.32 0 0 1 .706.888q.053.225.053.59v1.259q0 .785-.288 1.169-.377.525-1.163.524-.46 0-.797-.175a1.26 1.26 0 0 1-.524-.522q-.2-.372-.199-.996m2.534-.07v-1.087q0-.375-.05-.592a.95.95 0 0 0-.173-.375q-.286-.372-.823-.372-.299 0-.539.132a.9.9 0 0 0-.366.36q-.144.267-.144.847v1.087q0 .661.211.964.296.395.85.395.319 0 .554-.129a.8.8 0 0 0 .348-.375q.132-.278.132-.855m.788.07v-1.26q0-.405.079-.68.083-.278.264-.489.194-.228.486-.348.293-.12.653-.12.408 0 .73.16a1.31 1.31 0 0 1 .706.888q.053.225.053.59v1.259q0 .785-.287 1.169-.378.525-1.163.524-.46 0-.797-.175a1.26 1.26 0 0 1-.525-.522q-.2-.372-.199-.996m2.534-.07v-1.087q0-.375-.05-.592a.94.94 0 0 0-.172-.375q-.287-.372-.824-.372-.299 0-.539.132a.9.9 0 0 0-.366.36q-.144.267-.143.847v1.087q0 .661.21.964.297.395.85.395.32 0 .554-.129a.8.8 0 0 0 .348-.375q.132-.278.132-.855m1.612-.794a1.2 1.2 0 0 1-.299-.235 1 1 0 0 1-.217-.653q0-.49.337-.817.34-.329.844-.328.512 0 .84.322.331.32.331.823 0 .328-.131.545a.9.9 0 0 1-.399.343q.37.164.566.466.199.298.199.706 0 .606-.396.996-.391.39-.999.39-.612 0-1.019-.39a1.3 1.3 0 0 1-.407-.979q0-.401.193-.706a1.3 1.3 0 0 1 .557-.483m.647.228a.92.92 0 0 0-.686.273.96.96 0 0 0-.266.7q0 .413.272.683.276.27.703.27.42 0 .686-.27a.95.95 0 0 0 .27-.7q0-.425-.273-.69-.27-.266-.706-.266m0-1.86a.7.7 0 0 0-.519.202.7.7 0 0 0-.202.513.7.7 0 0 0 .214.524.75.75 0 0 0 .536.208q.305 0 .51-.208a.7.7 0 0 0 .205-.518.7.7 0 0 0-.205-.522.74.74 0 0 0-.539-.2M60.142 6.93q.54 0 1.036.215.499.215.861.574.366.36.581.858.219.496.219 1.032 0 .54-.219 1.036a2.7 2.7 0 0 1-.584.854 2.8 2.8 0 0 1-1.928.787q-.55 0-1.06-.212a2.8 2.8 0 0 1-.875-.575 2.8 2.8 0 0 1-.584-.854 2.5 2.5 0 0 1-.219-1.036q0-.735.37-1.35a2.67 2.67 0 0 1 1.004-.97q.639-.36 1.398-.36m-.061.475q-.582 0-1.087.3-.503.301-.8.81t-.297 1.094q0 .592.297 1.1.3.507.81.804.51.294 1.104.294.444 0 .851-.174.407-.178.704-.472t.472-.697q.178-.407.178-.848 0-.45-.178-.861a2.204 2.204 0 0 0-1.186-1.176 2.2 2.2 0 0 0-.868-.174m3.879 4.788V7.022h1.425q.502 0 .82.061.322.061.56.209.295.174.455.513.162.335.161.782 0 .39-.133.698-.135.307-.383.492a1.5 1.5 0 0 1-.554.25 3.8 3.8 0 0 1-.84.074h-.995v2.092zm.516-2.563h.96q.698 0 .995-.175a.72.72 0 0 0 .314-.338q.113-.229.113-.537 0-.378-.15-.632a.75.75 0 0 0-.43-.345q-.336-.113-1.067-.113h-.735zm6.432-2.14h-2.01v4.703h-.516V7.022h2.526zm-.253 4.703 2.218-5.171h.581l2.225 5.171h-.567l-.749-1.743h-2.41l-.755 1.743zm1.497-2.211h2.01l-.995-2.372zm4.42 2.211V7.022h.515v2.273h2.683V7.022h.517v5.171h-.517v-2.43h-2.683v2.43zm5.057 0V7.022h.517v5.171zm2.782-3.038q.55 0 .852-.22.303-.222.304-.635a.87.87 0 0 0-.257-.625.82.82 0 0 0-.611-.263.83.83 0 0 0-.616.263.87.87 0 0 0-.253.625h-.54q0-.557.414-.964.413-.405.995-.406.581 0 .994.4.414.399.414.957 0 .228-.082.423a.9.9 0 0 1-.212.322 1.4 1.4 0 0 1-.274.208 1 1 0 0 1-.287.113q.182.037.366.147.188.11.352.28.164.167.267.417a1.3 1.3 0 0 1 .106.52q0 .646-.482 1.107a1.6 1.6 0 0 1-1.149.462q-.669 0-1.152-.469a1.5 1.5 0 0 1-.478-1.114h.554q0 .45.31.773.315.317.766.317.452 0 .762-.317.315-.322.315-.773 0-.287-.113-.499a.84.84 0 0 0-.304-.338 1.4 1.4 0 0 0-.438-.182 2 2 0 0 0-.523-.061zm2.471 3.038 2.219-5.171h.58l2.226 5.171h-.568q0 0-.748-1.743h-2.41l-.755 1.743zm1.497-2.211h2.01l-.994-2.372zm7.448-2.96h.52v4.703h.68v1.422h-.366l-.195-.954H92.8V7.022h.516v4.703h2.512zm2.194 5.171V7.022h.516v5.171zm4.525-2.632v-2.07h-.714q-.735 0-1.029.102a.73.73 0 0 0-.417.338q-.15.249-.15.615 0 .298.106.52a.7.7 0 0 0 .307.328q.29.168.967.167zm.516 2.632h-.516V10.03h-.981l-1.435 2.163h-.609l1.463-2.198a1.64 1.64 0 0 1-.769-.28 1.13 1.13 0 0 1-.376-.478 1.7 1.7 0 0 1-.13-.684q0-.438.157-.769a1.1 1.1 0 0 1 .448-.499q.236-.14.547-.202.311-.06.796-.061h1.405zm3.571 0V7.022h.517v5.171zm4.758-.468h3.513l-1.756-4.115zm4.6 0v1.422h-.365l-.195-.954h-4.563l-.198.954h-.363v-1.422h.533l2.014-4.703h.587l2.017 4.703zm.937.468V7.022h2.826v.468h-2.31v1.853h2.235v.471h-2.235v1.911h2.31v.468zm6.893 0-2.344-2.41v2.41h-.517V7.022h.517v2.372l2.358-2.372h.687l-2.553 2.56 2.553 2.611zm3.835-5.263q.54 0 1.036.215.498.215.861.574.365.36.581.858.219.496.219 1.032 0 .54-.219 1.036-.216.495-.584.854-.366.36-.872.575a2.735 2.735 0 0 1-2.116 0 2.8 2.8 0 0 1-.875-.575 2.8 2.8 0 0 1-.584-.854 2.5 2.5 0 0 1-.219-1.036q0-.735.369-1.35t1.005-.97q.639-.36 1.398-.36m-.062.475q-.58 0-1.086.3-.503.301-.8.81t-.298 1.094q0 .592.298 1.1.3.507.81.804.508.294 1.104.294.444 0 .851-.174.407-.178.704-.472a2.2 2.2 0 0 0 .649-1.545q0-.45-.177-.861a2.2 2.2 0 0 0-.475-.704 2.2 2.2 0 0 0-.711-.472 2.2 2.2 0 0 0-.869-.174m3.88 4.788V7.022h1.425q.502 0 .82.061.321.061.561.209.294.174.454.513.16.335.161.782 0 .39-.133.698-.134.307-.383.492a1.5 1.5 0 0 1-.554.25 3.8 3.8 0 0 1-.841.074h-.994v2.092zm.516-2.563h.96q.698 0 .995-.175a.72.72 0 0 0 .314-.338q.113-.229.113-.537 0-.378-.15-.632a.75.75 0 0 0-.431-.345q-.335-.113-1.066-.113h-.735z"/></g><defs><clipPath id="a"><path fill="#fff" d="M0 0h194v59H0z"/></clipPath></defs></svg>