<svg width="194" height="59" viewBox="0 0 194 59" fill="none" xmlns="http://www.w3.org/2000/svg">
<g clip-path="url(#clip0_3681_2)">
<mask id="mask0_3681_2" style="mask-type:luminance" maskUnits="userSpaceOnUse" x="-3" y="-77" width="201" height="201">
<path d="M-3 -77H198V123.711H-3V-77Z" fill="white"/>
</mask>
<g mask="url(#mask0_3681_2)">
<path d="M13.3085 17.9815C13.8078 17.3242 14.0492 16.7287 15.2648 17.0755C15.5235 17.1769 16.1426 22.1495 16.2433 22.4696C16.292 22.8825 16.3852 23.0806 16.1511 23.2767C14.7039 23.5655 14.2775 23.3867 13.6203 21.6483C12.7228 19.3947 10.9968 17.5233 10.6571 19.7936C10.6091 21.6746 15.6552 29.1262 15.9949 30.6599C16.9623 32.9741 17.1884 37.1848 15.4494 39.0197C13.9037 40.9168 11.8394 40.6812 9.99081 39.6706C9.86779 39.671 9.7687 39.7609 9.69292 39.9399C9.5878 40.3948 8.58381 40.6452 8.12633 40.3719C7.91166 40.2924 7.32937 35.3862 7.24012 35.098C7.14545 34.4942 7.09862 34.1733 7.09862 34.1354C7.03772 33.4662 9.03284 33.7464 9.05495 33.9937C9.90297 35.8366 11.1494 39.9747 12.8474 38.3258C13.8239 36.4602 11.8336 34.4702 10.9126 32.6347C8.52713 28.541 6.94706 26.5786 6.81461 22.5122C6.60557 18.5867 9.73132 15.304 13.3085 17.9815Z" fill="#565A5B"/>
<path d="M30.0056 23.6464C30.3499 24.1646 33.6097 38.782 34.4982 38.4942C35.0204 38.8928 34.8123 39.238 34.8039 40.1492C34.7747 40.3815 34.5707 40.4977 34.1929 40.4977C34.1309 40.4692 27.7448 40.5972 27.9834 40.3815C27.5068 38.0422 28.507 39.0724 28.7252 38.0729C28.725 38.005 28.7152 37.9228 28.6959 37.8258L26.6592 30.499L26.1657 31.5925V37.5205C26.0517 38.4524 27.1353 38.4466 27.0965 39.3797C27.0509 40.1197 27.1599 40.4712 26.4129 40.4977C26.2351 40.4575 19.7679 40.6332 19.8559 40.359C19.2041 38.0337 20.6469 38.9307 20.7574 37.6817L20.7572 20.258C20.8537 19.2614 19.5773 19.3293 19.7395 18.3566C19.8322 17.4237 19.5144 17.1241 20.2338 17.0646H26.864C27.7148 16.9502 27.1936 18.8741 27.2857 18.7994C27.0688 19.2207 26.0357 19.5388 26.1659 20.1269L26.1657 27.5659L29.325 20.3706C29.5594 19.6984 29.8255 19.4734 29.2372 19.039C28.6593 18.8917 28.3532 17.1062 29.119 17.0646C29.3498 17.1233 33.3539 16.9177 33.3919 17.1943C33.493 17.8165 33.6994 18.9196 32.7816 19.097C31.9477 19.141 30.445 23.0942 30.0056 23.6464Z" fill="#565A5B"/>
<path d="M45.5146 20.3862C45.7317 17.9987 43.1356 18.1595 43.1762 20.1284C43.3052 20.5224 42.8383 39.1448 43.5205 38.7426C44.3687 39.872 45.6185 38.6713 45.5146 37.5751V20.3862ZM44.3812 16.9913C54.0185 17.1266 54.0591 40.834 44.2666 40.7549C34.6399 40.7553 34.77 16.9185 44.3812 16.9913Z" fill="#565A5B"/>
<path d="M60.8325 18.781V28.5386C62.508 28.7052 63.1979 28.2169 63.2101 25.6576V20.9961C63.2809 19.2673 62.3975 18.6538 60.8325 18.781ZM60.8325 30.2177V37.3984C60.8325 37.7362 60.8538 37.9628 60.8968 38.0786C61.1169 38.4427 61.7287 38.6358 61.6443 39.2658C61.5961 40.1411 61.6992 40.4524 60.9354 40.4964H54.815C54.1102 40.6126 54.3034 39.0599 54.3378 38.8096C54.7341 38.2737 55.5144 38.2211 55.425 37.2671C55.4252 37.2671 55.4252 20.302 55.4252 20.302C55.5094 19.3825 54.8039 19.2324 54.2942 18.9277C54.0926 18.5444 54.2085 16.9421 54.8164 17.131C57.9592 17.4734 64.7421 16.02 67.1027 18.9257C70.2395 21.9308 69.5267 28.314 64.5874 29.3637C68.9867 30.1037 68.7111 34.3574 68.6033 37.8907C68.574 38.5621 69.4104 38.6199 69.3284 39.3383C69.2598 40.2248 69.4813 40.4622 68.6906 40.4964H64.8053C64.3409 40.4964 63.9592 40.2334 63.6596 39.7074C62.829 38.5541 63.346 33.3209 63.2101 31.926C63.2897 30.4562 62.0899 30.1011 60.8325 30.2177Z" fill="#565A5B"/>
<path d="M80.4365 20.3862C80.6536 17.9987 78.0574 18.1595 78.098 20.1284C78.2271 20.5224 77.7602 39.1448 78.4424 38.7426C79.2906 39.872 80.5404 38.6713 80.4365 37.5751V20.3862ZM79.303 16.9913C88.9404 17.1266 88.981 40.834 79.1885 40.7549C69.5618 40.7553 69.6918 16.9185 79.303 16.9913Z" fill="#565A5B"/>
<path d="M104.698 17.9946C105.203 17.3294 105.447 16.7271 106.677 17.0777C106.939 17.1805 107.565 22.2115 107.667 22.5354C107.716 22.9531 107.81 23.1536 107.573 23.3519C106.109 23.6444 105.678 23.4631 105.013 21.7045C104.105 19.4242 102.359 17.5309 102.015 19.8281C101.966 21.731 107.072 29.2703 107.415 30.822C108.394 33.1635 108.623 37.4236 106.863 39.2802C105.3 41.1994 103.211 40.9611 101.341 39.9387C101.216 39.9389 101.116 40.03 101.039 40.2113C100.933 40.6713 99.9171 40.9246 99.4542 40.6482C99.2373 40.5677 98.6482 35.604 98.5578 35.3123C98.4621 34.7014 98.4146 34.3766 98.4146 34.3385C98.3529 33.6613 100.372 33.9449 100.394 34.195C101.252 36.0596 102.513 40.2464 104.231 38.5781C105.219 36.6906 103.205 34.6771 102.273 32.8201C99.8598 28.6782 98.2613 26.6928 98.1272 22.5784C97.9158 18.6067 101.078 15.2856 104.698 17.9946Z" fill="#565A5B"/>
<path d="M118.814 31.3714C118.843 31.0518 121.112 20.1576 121.078 19.8525C121.262 19.1248 119.713 18.9341 119.886 18.2713C119.945 17.708 119.703 17.055 120.307 17.0613C120.421 17.1126 124.305 16.9176 124.2 17.1981C124.598 19.7815 123.448 18.4311 123.174 20.5755L119.388 39.4478L119.155 40.5956C119.136 40.702 119.034 40.7554 118.85 40.7554C118.643 40.7404 115.657 40.8985 115.639 40.5812C114.959 39.5196 112.19 19.7404 110.86 19.0937C110.285 18.8522 110.462 18.4263 110.467 17.9263C110.438 17.612 110.399 17.0301 110.802 17.0613H117.413C117.95 17.2503 117.689 17.6389 117.719 18.5014C117.699 18.6262 117.597 18.7318 117.414 18.8179C116.854 19.0694 116.681 19.5906 116.817 20.1512L118.814 31.3714Z" fill="#565A5B"/>
<path d="M129.418 22.47L127.775 33.8185H131.009L129.418 22.47ZM131.158 35.4884H127.534L127.365 36.8237C126.615 38.7345 128.519 38.155 128.427 39.6555C128.376 40.239 128.539 40.4586 128.05 40.4979H124.223C123.596 40.3247 123.97 38.8515 124.413 38.5378C125.373 38.0452 127.459 20.7094 127.732 19.807C127.774 19.1589 126.69 19.1013 126.813 18.2383C126.882 17.4364 126.653 17.1121 127.365 17.0617C127.922 17.2502 133.578 16.5812 133.63 17.5406C134.76 20.8447 135.477 35.5406 137.457 38.596C137.797 38.8956 137.741 38.8611 137.762 39.4235C137.708 40.1686 137.87 40.453 137.226 40.4979H130.767C130.215 40.3861 130.441 38.7828 130.969 38.6684C131.968 37.7915 131.295 37.3022 131.158 35.4884Z" fill="#565A5B"/>
<path d="M146.325 18.7905V38.9016C148.319 39.1499 148.701 37.9157 148.667 35.8231V20.9831C148.727 19.5252 147.746 18.58 146.325 18.7905ZM140.916 37.2752V19.6907C140.914 19.2961 140.02 19.2472 139.884 18.914C139.656 18.1842 139.495 16.828 140.916 17.0628C144.529 17.3205 150.55 15.8361 152.818 19.8069C155.36 22.88 155.467 34.2519 152.884 37.6167C150.595 41.9165 144.017 40.1687 140.203 40.4989C139.401 40.6384 139.661 39.2288 139.68 38.887C140.077 38.4219 141.044 38.0777 140.916 37.2752Z" fill="#565A5B"/>
<path d="M163.744 27.9059V38.8167C167.115 38.9255 165.9 36.2508 166.172 33.354C166.17 32.9841 166.137 29.0678 165.953 28.7238C165.685 27.8099 164.566 27.8918 163.744 27.9059ZM163.744 18.5726V26.2408C166.568 26.6719 166.178 24.0992 166.216 21.9173C166.236 19.4555 165.957 18.3629 163.744 18.5726ZM167.576 27.0587C169.361 27.6819 170.59 28.4536 171.263 29.3737C172.982 31.6427 172.405 37.023 170.414 38.6851C168.215 41.3248 160.828 40.3118 157.513 40.4963C156.854 40.5563 157.129 39.5389 157.074 39.1672C157.18 38.4629 158.468 38.3467 158.303 37.4728L158.303 19.8433C158.43 19.082 157.506 19.1785 157.14 18.6455C157.097 18.235 156.867 16.768 157.776 16.9224L165.792 16.9222C172.629 16.4834 174.102 25.5234 167.576 27.0587Z" fill="#565A5B"/>
<path d="M179.81 22.3639L178.158 33.7791H181.41L179.81 22.3639ZM181.561 35.4589H177.914L177.745 36.802C176.991 38.724 178.905 38.1412 178.813 39.6507C178.762 40.2376 178.926 40.4584 178.434 40.4979H174.585C173.954 40.3237 174.329 38.8419 174.776 38.5261C175.742 38.0308 177.84 20.5928 178.114 19.6852C178.156 19.0333 177.066 18.9753 177.189 18.1072C177.259 17.3005 177.029 16.9744 177.745 16.9238C178.305 17.1133 183.994 16.4403 184.047 17.4053C185.183 20.7289 185.905 35.5115 187.896 38.5847C188.238 38.8862 188.181 38.8515 188.203 39.4171C188.149 40.1666 188.311 40.4528 187.664 40.4979H181.167C180.972 40.4979 180.876 40.3131 180.876 39.943C180.899 37.53 182.544 39.8705 181.561 35.4589Z" fill="#565A5B"/>
</g>
<path d="M77.21 53.1941C77.21 53.1941 77.3682 53.1941 77.6846 53.1941C77.6982 53.3347 77.7217 53.4509 77.7549 53.5427C77.79 53.6326 77.8408 53.7166 77.9072 53.7947C77.9873 53.8923 78.0889 53.9685 78.2119 54.0232C78.3369 54.0779 78.4688 54.1052 78.6074 54.1052C78.8613 54.1052 79.0703 54.0222 79.2344 53.8562C79.4004 53.6902 79.4834 53.4792 79.4834 53.2234C79.4834 52.9421 79.3838 52.7302 79.1846 52.5876C79.042 52.49 78.8115 52.3943 78.4932 52.3005C78.2354 52.2205 78.0547 52.156 77.9512 52.1072C77.8496 52.0564 77.7549 51.989 77.667 51.905C77.5674 51.8132 77.4902 51.698 77.4355 51.5593C77.3809 51.4187 77.3535 51.2712 77.3535 51.1169C77.3535 50.7693 77.4688 50.4841 77.6992 50.2615C77.9316 50.0369 78.2266 49.9246 78.584 49.9246C78.9473 49.9246 79.2432 50.0349 79.4717 50.2556C79.7002 50.4763 79.8184 50.7664 79.8262 51.1257H79.3633C79.3477 50.8855 79.2676 50.6931 79.123 50.5486C78.9805 50.4041 78.7969 50.3318 78.5723 50.3318C78.3496 50.3318 78.166 50.405 78.0215 50.5515C77.877 50.696 77.8047 50.8806 77.8047 51.1052C77.8047 51.2068 77.8232 51.3035 77.8604 51.3953C77.8975 51.4871 77.9482 51.5623 78.0127 51.6208C78.0732 51.6716 78.1465 51.7156 78.2324 51.7527C78.3203 51.7898 78.4658 51.8386 78.6689 51.8992C78.8916 51.9656 79.0605 52.0242 79.1758 52.075C79.293 52.1257 79.3994 52.1853 79.4951 52.2537C79.6338 52.3591 79.7412 52.4949 79.8174 52.6609C79.8955 52.8269 79.9346 53.0066 79.9346 53.2C79.9346 53.5769 79.8076 53.8904 79.5537 54.1404C79.2998 54.3904 78.9805 54.5154 78.5957 54.5154C78.1973 54.5154 77.8721 54.3953 77.6201 54.155C77.3682 53.9128 77.2314 53.5925 77.21 53.1941ZM80.5234 54.4363C80.5234 54.4363 80.5234 52.9587 80.5234 50.0037C80.5234 50.0037 80.6709 50.0037 80.9658 50.0037C80.9658 50.0037 80.9658 51.4812 80.9658 54.4363C80.9658 54.4363 80.8184 54.4363 80.5234 54.4363ZM81.877 54.4363C81.877 54.4363 81.877 52.9587 81.877 50.0037C81.877 50.0037 82.0762 50.0037 82.4746 50.0037C82.4746 50.0037 83.3027 51.2292 84.959 53.6804C84.959 53.6804 84.959 52.4548 84.959 50.0037C84.959 50.0037 85.1074 50.0037 85.4043 50.0037C85.4043 50.0037 85.4043 51.4812 85.4043 54.4363C85.4043 54.4363 85.2559 54.4363 84.959 54.4363C84.959 54.4363 84.0791 53.1365 82.3193 50.5369C82.3193 50.5369 82.3193 51.8367 82.3193 54.4363C82.3193 54.4363 82.1719 54.4363 81.877 54.4363ZM90.0479 53.2732C90.0479 53.2732 90.2119 53.2732 90.54 53.2732C90.0928 54.1013 89.417 54.5154 88.5127 54.5154C88.1865 54.5154 87.8789 54.4568 87.5898 54.3396C87.3008 54.2224 87.0537 54.0632 86.8486 53.8621C86.6436 53.6589 86.4814 53.4167 86.3623 53.1355C86.2432 52.8523 86.1836 52.5515 86.1836 52.2332C86.1836 51.7976 86.2822 51.4041 86.4795 51.0525C86.6787 50.699 86.9531 50.4226 87.3027 50.2234C87.6543 50.0242 88.0469 49.9246 88.4805 49.9246C88.9395 49.9246 89.3516 50.0349 89.7168 50.2556C90.082 50.4744 90.3506 50.7742 90.5225 51.155H90.0244C89.9385 51.0164 89.8584 50.908 89.7842 50.8298C89.71 50.7517 89.6201 50.6794 89.5146 50.613C89.2178 50.4255 88.8799 50.3318 88.501 50.3318C88.2393 50.3318 87.9932 50.3806 87.7627 50.4783C87.5322 50.574 87.334 50.7058 87.168 50.8738C87.0039 51.0398 86.874 51.239 86.7783 51.4714C86.6826 51.7039 86.6348 51.9519 86.6348 52.2156C86.6348 52.4714 86.6836 52.7166 86.7812 52.9509C86.8809 53.1833 87.0146 53.3845 87.1826 53.5544C87.3506 53.7224 87.5498 53.8562 87.7803 53.9558C88.0107 54.0554 88.2529 54.1052 88.5068 54.1052C88.7139 54.1052 88.9141 54.072 89.1074 54.0056C89.3027 53.9392 89.4766 53.8445 89.6289 53.7214C89.7715 53.6023 89.9111 53.4529 90.0479 53.2732ZM91.2578 54.4363C91.2578 54.4363 91.2578 52.9587 91.2578 50.0037C91.2578 50.0037 92.0654 50.0037 93.6807 50.0037C93.6807 50.0037 93.6807 50.1375 93.6807 50.405C93.6807 50.405 93.0205 50.405 91.7002 50.405C91.7002 50.405 91.7002 50.9343 91.7002 51.9929C91.7002 51.9929 92.3389 51.9929 93.6162 51.9929C93.6162 51.9929 93.6162 52.1277 93.6162 52.3972C93.6162 52.3972 92.9775 52.3972 91.7002 52.3972C91.7002 52.3972 91.7002 52.9431 91.7002 54.0349C91.7002 54.0349 92.3604 54.0349 93.6807 54.0349C93.6807 54.0349 93.6807 54.1687 93.6807 54.4363C93.6807 54.4363 92.873 54.4363 91.2578 54.4363ZM100.873 54.4363C100.873 54.4363 100.873 54.3025 100.873 54.0349C100.873 54.0349 101.391 53.5349 102.426 52.5349C102.617 52.3513 102.735 52.2361 102.78 52.1892C102.827 52.1423 102.885 52.0769 102.953 51.9929C103.162 51.7507 103.267 51.5037 103.267 51.2517C103.267 50.9822 103.176 50.7605 102.994 50.5867C102.814 50.4128 102.585 50.3259 102.306 50.3259C102.11 50.3259 101.937 50.3728 101.784 50.4666C101.634 50.5583 101.521 50.6853 101.447 50.8474C101.379 50.9919 101.345 51.1882 101.345 51.4363H100.908C100.908 51.28 100.914 51.1599 100.926 51.0759C100.939 50.99 100.966 50.8943 101.005 50.7888C101.108 50.5193 101.274 50.3083 101.503 50.156C101.733 50.0017 102.003 49.9246 102.312 49.9246C102.716 49.9246 103.05 50.0515 103.313 50.3054C103.577 50.5593 103.709 50.8826 103.709 51.2751C103.709 51.5134 103.651 51.7322 103.536 51.9314C103.421 52.1287 103.207 52.3757 102.895 52.6726L101.471 54.0349H103.686V54.4363H100.873ZM104.175 52.822C104.175 52.822 104.175 52.4021 104.175 51.5623C104.175 51.2927 104.201 51.0662 104.254 50.8826C104.309 50.697 104.396 50.5339 104.518 50.3933C104.646 50.241 104.809 50.1248 105.004 50.0447C105.199 49.9646 105.417 49.9246 105.657 49.9246C105.929 49.9246 106.172 49.9783 106.387 50.0857C106.604 50.1931 106.778 50.3474 106.911 50.5486C106.997 50.6814 107.058 50.823 107.093 50.9734C107.128 51.1238 107.146 51.3201 107.146 51.5623V52.822C107.146 53.3455 107.05 53.7351 106.858 53.991C106.606 54.3406 106.219 54.5154 105.695 54.5154C105.389 54.5154 105.123 54.4568 104.898 54.3396C104.674 54.2205 104.499 54.0466 104.374 53.8181C104.241 53.5701 104.175 53.238 104.175 52.822ZM106.709 52.7517V51.6648C106.709 51.4148 106.692 51.2175 106.659 51.073C106.626 50.9285 106.568 50.8035 106.486 50.698C106.295 50.45 106.021 50.3259 105.663 50.3259C105.464 50.3259 105.284 50.3699 105.124 50.4578C104.964 50.5457 104.842 50.6658 104.758 50.8181C104.662 50.9958 104.614 51.2781 104.614 51.6648V52.7517C104.614 53.1931 104.685 53.5144 104.825 53.7156C105.022 53.9792 105.306 54.1111 105.675 54.1111C105.888 54.1111 106.072 54.0681 106.229 53.9822C106.387 53.8943 106.503 53.7693 106.577 53.6072C106.665 53.4216 106.709 53.1365 106.709 52.7517ZM107.497 52.822C107.497 52.822 107.497 52.4021 107.497 51.5623C107.497 51.2927 107.523 51.0662 107.576 50.8826C107.631 50.697 107.719 50.5339 107.84 50.3933C107.969 50.241 108.131 50.1248 108.326 50.0447C108.521 49.9646 108.739 49.9246 108.979 49.9246C109.251 49.9246 109.494 49.9783 109.709 50.0857C109.926 50.1931 110.101 50.3474 110.233 50.5486C110.319 50.6814 110.38 50.823 110.415 50.9734C110.45 51.1238 110.468 51.3201 110.468 51.5623V52.822C110.468 53.3455 110.372 53.7351 110.181 53.991C109.929 54.3406 109.541 54.5154 109.018 54.5154C108.711 54.5154 108.445 54.4568 108.221 54.3396C107.996 54.2205 107.821 54.0466 107.696 53.8181C107.563 53.5701 107.497 53.238 107.497 52.822ZM110.031 52.7517V51.6648C110.031 51.4148 110.015 51.2175 109.981 51.073C109.948 50.9285 109.891 50.8035 109.809 50.698C109.617 50.45 109.343 50.3259 108.985 50.3259C108.786 50.3259 108.606 50.3699 108.446 50.4578C108.286 50.5457 108.164 50.6658 108.08 50.8181C107.984 50.9958 107.937 51.2781 107.937 51.6648V52.7517C107.937 53.1931 108.007 53.5144 108.147 53.7156C108.345 53.9792 108.628 54.1111 108.997 54.1111C109.21 54.1111 109.395 54.0681 109.551 53.9822C109.709 53.8943 109.825 53.7693 109.899 53.6072C109.987 53.4216 110.031 53.1365 110.031 52.7517ZM111.643 51.9578C111.514 51.8816 111.414 51.8035 111.344 51.7234C111.199 51.5417 111.127 51.324 111.127 51.0701C111.127 50.7439 111.239 50.4714 111.464 50.2527C111.69 50.0339 111.972 49.9246 112.308 49.9246C112.649 49.9246 112.93 50.032 113.148 50.2468C113.369 50.4597 113.479 50.7341 113.479 51.0701C113.479 51.2888 113.436 51.4705 113.348 51.615C113.262 51.7595 113.129 51.8738 112.949 51.9578C113.195 52.0671 113.384 52.2224 113.515 52.4236C113.647 52.6228 113.714 52.8582 113.714 53.1296C113.714 53.5339 113.582 53.866 113.318 54.1257C113.057 54.3855 112.724 54.5154 112.319 54.5154C111.911 54.5154 111.571 54.3855 111.3 54.1257C111.028 53.864 110.893 53.5378 110.893 53.1472C110.893 52.8796 110.957 52.6443 111.086 52.4412C111.215 52.2361 111.4 52.075 111.643 51.9578ZM112.29 52.1863C112.011 52.1863 111.782 52.2771 111.604 52.4587C111.427 52.6404 111.338 52.8738 111.338 53.1589C111.338 53.4343 111.429 53.6619 111.61 53.8416C111.794 54.0212 112.028 54.1111 112.313 54.1111C112.593 54.1111 112.821 54.0212 112.999 53.8416C113.179 53.6599 113.269 53.4265 113.269 53.1414C113.269 52.8582 113.178 52.6287 112.996 52.4529C112.816 52.2751 112.581 52.1863 112.29 52.1863ZM112.29 50.3259C112.081 50.3259 111.908 50.3933 111.771 50.5281C111.637 50.6628 111.569 50.8337 111.569 51.0408C111.569 51.2498 111.641 51.4246 111.783 51.5652C111.928 51.7039 112.106 51.7732 112.319 51.7732C112.522 51.7732 112.692 51.7039 112.829 51.5652C112.966 51.4265 113.034 51.2537 113.034 51.0466C113.034 50.8318 112.966 50.658 112.829 50.5251C112.692 50.3923 112.513 50.3259 112.29 50.3259Z" fill="#565A5B"/>
<path d="M60.1421 6.92957C60.5021 6.92957 60.8473 7.00134 61.1777 7.1449C61.5104 7.28845 61.7975 7.47986 62.0391 7.71912C62.2829 7.95837 62.4766 8.24434 62.6201 8.57703C62.766 8.90743 62.8389 9.25151 62.8389 9.60925C62.8389 9.96928 62.766 10.3145 62.6201 10.6449C62.4766 10.9753 62.2817 11.2601 62.0356 11.4994C61.7918 11.7386 61.5013 11.9301 61.1641 12.0736C60.8268 12.2149 60.4748 12.2855 60.1079 12.2855C59.741 12.2855 59.3879 12.2149 59.0483 12.0736C58.7111 11.9301 58.4194 11.7386 58.1733 11.4994C57.9295 11.2579 57.7347 10.973 57.5889 10.6449C57.443 10.3145 57.3701 9.96928 57.3701 9.60925C57.3701 9.11934 57.4932 8.66931 57.7393 8.25916C57.9854 7.849 58.3203 7.52543 58.7441 7.28845C59.1702 7.04919 59.6362 6.92957 60.1421 6.92957ZM60.0806 7.40466C59.6932 7.40466 59.3309 7.50492 58.9937 7.70544C58.6587 7.90597 58.3921 8.17598 58.1938 8.5155C57.9956 8.85502 57.8965 9.2196 57.8965 9.60925C57.8965 10.0035 57.9956 10.3703 58.1938 10.7098C58.3944 11.0471 58.6644 11.3148 59.0039 11.5131C59.3434 11.709 59.7114 11.807 60.1079 11.807C60.4041 11.807 60.6878 11.7489 60.959 11.6327C61.2301 11.5142 61.4648 11.357 61.6631 11.161C61.8613 10.965 62.0186 10.7326 62.1348 10.4637C62.2533 10.1926 62.3125 9.91003 62.3125 9.61609C62.3125 9.31531 62.2533 9.0282 62.1348 8.75476C62.0186 8.48132 61.8602 8.24662 61.6597 8.05066C61.4614 7.85242 61.2244 7.69519 60.9487 7.57898C60.673 7.46277 60.3836 7.40466 60.0806 7.40466ZM63.9597 12.1932C63.9597 12.1932 63.9597 10.4694 63.9597 7.02185C63.9597 7.02185 64.4348 7.02185 65.385 7.02185C65.7199 7.02185 65.9934 7.04236 66.2053 7.08337C66.4195 7.12439 66.6063 7.19389 66.7658 7.29187C66.9618 7.40808 67.1133 7.57898 67.2204 7.80457C67.3275 8.02787 67.3811 8.28878 67.3811 8.58728C67.3811 8.84705 67.3366 9.07947 67.2478 9.28455C67.1589 9.48962 67.0313 9.65369 66.865 9.77673C66.7077 9.89294 66.5232 9.97611 66.3113 10.0262C66.0993 10.0764 65.8191 10.1014 65.4704 10.1014H64.4758V12.1932H63.9597ZM64.4758 9.62976H65.4363C65.9011 9.62976 66.2326 9.57166 66.4309 9.45544C66.5676 9.38253 66.6724 9.26973 66.7453 9.11707C66.8205 8.9644 66.8581 8.78552 66.8581 8.58044C66.8581 8.32751 66.808 8.11674 66.7077 7.94812C66.6075 7.77722 66.4639 7.66215 66.2771 7.60291C66.0538 7.52771 65.6983 7.49011 65.2107 7.49011H64.4758V9.62976ZM70.9081 7.49011C70.9081 7.49011 70.2382 7.49011 68.8984 7.49011C68.8984 7.49011 68.8984 9.05782 68.8984 12.1932C68.8984 12.1932 68.7263 12.1932 68.3823 12.1932C68.3823 12.1932 68.3823 10.4694 68.3823 7.02185C68.3823 7.02185 69.2242 7.02185 70.9081 7.02185C70.9081 7.02185 70.9081 7.17794 70.9081 7.49011ZM70.6549 12.1932C70.6549 12.1932 71.3944 10.4694 72.8732 7.02185C72.8732 7.02185 73.0669 7.02185 73.4543 7.02185C73.4543 7.02185 74.196 8.74565 75.6794 12.1932C75.6794 12.1932 75.4902 12.1932 75.112 12.1932C75.112 12.1932 74.8625 11.6122 74.3634 10.4501C74.3634 10.4501 73.5602 10.4501 71.9538 10.4501C71.9538 10.4501 71.702 11.0311 71.1984 12.1932C71.1984 12.1932 71.0172 12.1932 70.6549 12.1932ZM72.152 9.98181C72.152 9.98181 72.8219 9.98181 74.1618 9.98181C74.1618 9.98181 73.8302 9.19112 73.1671 7.60974C73.1671 7.60974 72.8288 8.40043 72.152 9.98181ZM76.5712 12.1932C76.5712 12.1932 76.5712 10.4694 76.5712 7.02185C76.5712 7.02185 76.7432 7.02185 77.0873 7.02185C77.0873 7.02185 77.0873 7.7795 77.0873 9.2948C77.0873 9.2948 77.9817 9.2948 79.7704 9.2948C79.7704 9.2948 79.7704 8.53715 79.7704 7.02185C79.7704 7.02185 79.9424 7.02185 80.2865 7.02185C80.2865 7.02185 80.2865 8.74565 80.2865 12.1932C80.2865 12.1932 80.1145 12.1932 79.7704 12.1932C79.7704 12.1932 79.7704 11.3832 79.7704 9.76306C79.7704 9.76306 78.876 9.76306 77.0873 9.76306C77.0873 9.76306 77.0873 10.5731 77.0873 12.1932C77.0873 12.1932 76.9152 12.1932 76.5712 12.1932ZM81.6295 12.1932C81.6295 12.1932 81.6295 10.4694 81.6295 7.02185C81.6295 7.02185 81.8015 7.02185 82.1456 7.02185C82.1456 7.02185 82.1456 8.74565 82.1456 12.1932C82.1456 12.1932 81.9736 12.1932 81.6295 12.1932ZM84.4114 9.15466C84.7783 9.15466 85.062 9.08175 85.2625 8.93591C85.4653 8.7878 85.5667 8.57589 85.5667 8.30017C85.5667 8.05863 85.4813 7.85014 85.3104 7.67468C85.1418 7.49923 84.9378 7.4115 84.6986 7.4115C84.4593 7.4115 84.2542 7.49923 84.0833 7.67468C83.9147 7.85014 83.8304 8.05863 83.8304 8.30017H83.2904C83.2904 7.92875 83.4282 7.60746 83.7039 7.3363C83.9796 7.06514 84.3112 6.92957 84.6986 6.92957C85.0859 6.92957 85.4175 7.06287 85.6932 7.32947C85.9689 7.59607 86.1068 7.91508 86.1068 8.2865C86.1068 8.43917 86.0794 8.58044 86.0247 8.71033C85.9723 8.84021 85.9017 8.94731 85.8128 9.03162C85.7262 9.11593 85.6351 9.18542 85.5394 9.24011C85.446 9.29252 85.3502 9.33012 85.2523 9.35291C85.373 9.37797 85.4949 9.42696 85.618 9.49988C85.7433 9.57279 85.8607 9.66622 85.97 9.78015C86.0794 9.89181 86.1683 10.0308 86.2366 10.1971C86.3073 10.3612 86.3426 10.5344 86.3426 10.7167C86.3426 11.1473 86.182 11.5165 85.8607 11.8241C85.5417 12.1317 85.1588 12.2855 84.7122 12.2855C84.2656 12.2855 83.8817 12.1294 83.5604 11.8173C83.2414 11.5051 83.0819 11.1337 83.0819 10.703H83.6356C83.6356 11.0038 83.7392 11.2613 83.9466 11.4755C84.1562 11.6874 84.4114 11.7933 84.7122 11.7933C85.013 11.7933 85.2671 11.6874 85.4744 11.4755C85.6841 11.2613 85.7889 11.0038 85.7889 10.703C85.7889 10.5116 85.7513 10.3453 85.6761 10.204C85.6032 10.0604 85.5018 9.94763 85.3719 9.8656C85.242 9.78357 85.0962 9.72319 84.9344 9.68445C84.7749 9.64343 84.6006 9.62292 84.4114 9.62292V9.15466ZM86.8824 12.1932C86.8824 12.1932 87.6218 10.4694 89.1006 7.02185C89.1006 7.02185 89.2943 7.02185 89.6817 7.02185C89.6817 7.02185 90.4234 8.74565 91.9068 12.1932C91.9068 12.1932 91.7176 12.1932 91.3394 12.1932C91.3394 12.1932 91.0899 11.6122 90.5909 10.4501C90.5909 10.4501 89.7876 10.4501 88.1812 10.4501C88.1812 10.4501 87.9294 11.0311 87.4258 12.1932C87.4258 12.1932 87.2447 12.1932 86.8824 12.1932ZM88.3794 9.98181C88.3794 9.98181 89.0494 9.98181 90.3892 9.98181C90.3892 9.98181 90.0577 9.19112 89.3946 7.60974C89.3946 7.60974 89.0562 8.40043 88.3794 9.98181ZM95.8269 7.02185C95.8269 7.02185 96.0001 7.02185 96.3464 7.02185C96.3464 7.02185 96.3464 8.58956 96.3464 11.725C96.3464 11.725 96.5732 11.725 97.0266 11.725C97.0266 11.725 97.0266 12.1989 97.0266 13.1469C97.0266 13.1469 96.9047 13.1469 96.6609 13.1469C96.6609 13.1469 96.596 12.829 96.4661 12.1932C96.4661 12.1932 95.2436 12.1932 92.7986 12.1932C92.7986 12.1932 92.7986 10.4694 92.7986 7.02185C92.7986 7.02185 92.9706 7.02185 93.3147 7.02185C93.3147 7.02185 93.3147 8.58956 93.3147 11.725C93.3147 11.725 94.1521 11.725 95.8269 11.725C95.8269 11.725 95.8269 10.1573 95.8269 7.02185ZM98.021 12.1932C98.021 12.1932 98.021 10.4694 98.021 7.02185C98.021 7.02185 98.193 7.02185 98.5371 7.02185C98.5371 7.02185 98.5371 8.74565 98.5371 12.1932C98.5371 12.1932 98.3651 12.1932 98.021 12.1932ZM102.546 9.5614C102.546 9.5614 102.546 8.87097 102.546 7.49011C102.546 7.49011 102.308 7.49011 101.832 7.49011C101.342 7.49011 100.999 7.52429 100.803 7.59265C100.625 7.64962 100.486 7.76241 100.386 7.93103C100.286 8.09737 100.236 8.30245 100.236 8.54626C100.236 8.74451 100.271 8.91768 100.342 9.0658C100.414 9.21391 100.517 9.32328 100.649 9.39392C100.843 9.50557 101.165 9.5614 101.616 9.5614H102.546ZM103.062 12.1932H102.546C102.546 12.1932 102.546 11.472 102.546 10.0297C102.546 10.0297 102.219 10.0297 101.565 10.0297C101.565 10.0297 101.087 10.7509 100.13 12.1932C100.13 12.1932 99.9268 12.1932 99.5212 12.1932C99.5212 12.1932 100.009 11.4607 100.984 9.99548C100.676 9.95675 100.42 9.86332 100.215 9.71521C100.051 9.59672 99.9257 9.43722 99.8391 9.23669C99.7525 9.03389 99.7092 8.80603 99.7092 8.5531C99.7092 8.26143 99.7616 8.00509 99.8664 7.78406C99.9712 7.56303 100.12 7.39669 100.314 7.28503C100.471 7.19161 100.654 7.12439 100.861 7.08337C101.068 7.04236 101.334 7.02185 101.657 7.02185H103.062V12.1932ZM106.633 12.1932C106.633 12.1932 106.633 10.4694 106.633 7.02185C106.633 7.02185 106.805 7.02185 107.15 7.02185C107.15 7.02185 107.15 8.74565 107.15 12.1932C107.15 12.1932 106.978 12.1932 106.633 12.1932ZM111.391 11.725C111.391 11.725 112.562 11.725 114.904 11.725C114.904 11.725 114.319 10.3532 113.148 7.60974C113.148 7.60974 112.562 8.98149 111.391 11.725ZM115.991 11.725C115.991 11.725 115.991 12.1989 115.991 13.1469C115.991 13.1469 115.869 13.1469 115.626 13.1469C115.626 13.1469 115.561 12.829 115.431 12.1932C115.431 12.1932 113.91 12.1932 110.868 12.1932C110.868 12.1932 110.802 12.5111 110.67 13.1469C110.67 13.1469 110.549 13.1469 110.307 13.1469C110.307 13.1469 110.307 12.6729 110.307 11.725C110.307 11.725 110.485 11.725 110.84 11.725C110.84 11.725 111.511 10.1573 112.854 7.02185C112.854 7.02185 113.05 7.02185 113.441 7.02185C113.441 7.02185 114.114 8.58956 115.458 11.725C115.458 11.725 115.636 11.725 115.991 11.725ZM116.928 12.1932C116.928 12.1932 116.928 10.4694 116.928 7.02185C116.928 7.02185 117.87 7.02185 119.754 7.02185C119.754 7.02185 119.754 7.17794 119.754 7.49011C119.754 7.49011 118.984 7.49011 117.444 7.49011C117.444 7.49011 117.444 8.10763 117.444 9.34265C117.444 9.34265 118.189 9.34265 119.679 9.34265C119.679 9.34265 119.679 9.49988 119.679 9.81433C119.679 9.81433 118.934 9.81433 117.444 9.81433C117.444 9.81433 117.444 10.4512 117.444 11.725C117.444 11.725 118.214 11.725 119.754 11.725C119.754 11.725 119.754 11.8811 119.754 12.1932C119.754 12.1932 118.812 12.1932 116.928 12.1932ZM123.821 12.1932C123.821 12.1932 123.04 11.39 121.477 9.78357C121.477 9.78357 121.477 10.5868 121.477 12.1932C121.477 12.1932 121.305 12.1932 120.96 12.1932C120.96 12.1932 120.96 10.4694 120.96 7.02185C120.96 7.02185 121.133 7.02185 121.477 7.02185C121.477 7.02185 121.477 7.81254 121.477 9.39392C121.477 9.39392 122.263 8.60323 123.835 7.02185C123.835 7.02185 124.064 7.02185 124.522 7.02185C124.522 7.02185 123.671 7.8752 121.969 9.58191C121.969 9.58191 122.82 10.4524 124.522 12.1932C124.522 12.1932 124.288 12.1932 123.821 12.1932ZM127.656 6.92957C128.016 6.92957 128.361 7.00134 128.692 7.1449C129.024 7.28845 129.311 7.47986 129.553 7.71912C129.797 7.95837 129.99 8.24434 130.134 8.57703C130.28 8.90743 130.353 9.25151 130.353 9.60925C130.353 9.96928 130.28 10.3145 130.134 10.6449C129.99 10.9753 129.796 11.2601 129.55 11.4994C129.306 11.7386 129.015 11.9301 128.678 12.0736C128.341 12.2149 127.989 12.2855 127.622 12.2855C127.255 12.2855 126.902 12.2149 126.562 12.0736C126.225 11.9301 125.933 11.7386 125.687 11.4994C125.443 11.2579 125.249 10.973 125.103 10.6449C124.957 10.3145 124.884 9.96928 124.884 9.60925C124.884 9.11934 125.007 8.66931 125.253 8.25916C125.499 7.849 125.834 7.52543 126.258 7.28845C126.684 7.04919 127.15 6.92957 127.656 6.92957ZM127.594 7.40466C127.207 7.40466 126.845 7.50492 126.508 7.70544C126.173 7.90597 125.906 8.17598 125.708 8.5155C125.51 8.85502 125.41 9.2196 125.41 9.60925C125.41 10.0035 125.51 10.3703 125.708 10.7098C125.908 11.0471 126.178 11.3148 126.518 11.5131C126.857 11.709 127.225 11.807 127.622 11.807C127.918 11.807 128.202 11.7489 128.473 11.6327C128.744 11.5142 128.979 11.357 129.177 11.161C129.375 10.965 129.532 10.7326 129.649 10.4637C129.767 10.1926 129.826 9.91003 129.826 9.61609C129.826 9.31531 129.767 9.0282 129.649 8.75476C129.532 8.48132 129.374 8.24662 129.174 8.05066C128.975 7.85242 128.738 7.69519 128.463 7.57898C128.187 7.46277 127.898 7.40466 127.594 7.40466ZM131.474 12.1932C131.474 12.1932 131.474 10.4694 131.474 7.02185C131.474 7.02185 131.949 7.02185 132.899 7.02185C133.234 7.02185 133.507 7.04236 133.719 7.08337C133.933 7.12439 134.12 7.19389 134.28 7.29187C134.476 7.40808 134.627 7.57898 134.734 7.80457C134.841 8.02787 134.895 8.28878 134.895 8.58728C134.895 8.84705 134.851 9.07947 134.762 9.28455C134.673 9.48962 134.545 9.65369 134.379 9.77673C134.222 9.89294 134.037 9.97611 133.825 10.0262C133.613 10.0764 133.333 10.1014 132.984 10.1014H131.99V12.1932H131.474ZM131.99 9.62976H132.95C133.415 9.62976 133.747 9.57166 133.945 9.45544C134.082 9.38253 134.186 9.26973 134.259 9.11707C134.334 8.9644 134.372 8.78552 134.372 8.58044C134.372 8.32751 134.322 8.11674 134.222 7.94812C134.121 7.77722 133.978 7.66215 133.791 7.60291C133.568 7.52771 133.212 7.49011 132.725 7.49011H131.99V9.62976Z" fill="#565A5B"/>
</g>
<defs>
<clipPath id="clip0_3681_2">
<rect width="194" height="59" fill="white"/>
</clipPath>
</defs>
</svg>
