<svg width="59" height="56" viewBox="0 0 59 56" fill="none" xmlns="http://www.w3.org/2000/svg">
<path fill-rule="evenodd" clip-rule="evenodd" d="M35.71 11.9639C30.8736 14.0316 21.2077 18.3113 6.71222 24.8029C4.35838 25.765 3.12533 26.7063 3.01308 27.6267C2.82338 29.1821 4.71839 29.7946 7.29889 30.6287C7.6499 30.7421 8.01359 30.8597 8.38643 30.9843C10.9252 31.8325 14.3404 32.8249 16.1158 32.8644C17.7262 32.9001 19.5237 32.2177 21.5081 30.817C35.0517 21.4197 42.043 16.6698 42.4819 16.5674C42.7916 16.4952 43.2207 16.4043 43.5114 16.67C43.8022 16.9356 43.7736 17.4387 43.7428 17.5736C43.5551 18.3962 36.1164 25.5048 32.267 29.1834C31.0669 30.3301 30.2157 31.1436 30.0417 31.3294C29.6519 31.7455 29.2546 32.1392 28.8728 32.5176C26.5142 34.8547 24.7454 36.6073 28.9707 39.4694C31.0012 40.8448 32.626 41.9821 34.247 43.1168C36.0172 44.356 37.7829 45.592 40.0674 47.1312C40.6494 47.5234 41.2053 47.9308 41.7467 48.3275C43.8069 49.8372 45.6577 51.1935 47.9444 50.9772C49.2731 50.8515 50.6455 49.5673 51.3425 45.7372C52.9898 36.6854 56.2277 17.0729 56.976 8.99112C57.0416 8.28305 56.9591 7.37686 56.8929 6.97906C56.8266 6.58126 56.6882 6.01449 56.1852 5.59492C55.5894 5.09802 54.6697 4.99324 54.2584 5.00033C52.3882 5.03455 49.5188 6.0601 35.71 11.9639Z" stroke="black" stroke-linejoin="round"/>
</svg>
