<svg width="36" height="31" viewBox="0 0 36 31" fill="none" xmlns="http://www.w3.org/2000/svg">
<path fill-rule="evenodd" clip-rule="evenodd" d="M21.5952 5.39027C18.5501 6.69383 12.4641 9.39189 3.33732 13.4844C1.85528 14.091 1.07891 14.6844 1.00824 15.2646C0.888793 16.2453 2.08195 16.6314 3.70671 17.1572C3.92771 17.2287 4.1567 17.3028 4.39146 17.3814C5.98997 17.9162 8.14025 18.5418 9.25809 18.5667C10.2721 18.5892 11.4038 18.159 12.6533 17.2759C21.1807 11.3515 25.5826 8.35706 25.859 8.29251C26.0539 8.24696 26.3241 8.1897 26.5072 8.35716C26.6902 8.52462 26.6723 8.84176 26.6529 8.92684C26.5347 9.44545 21.8511 13.9269 19.4274 16.246C18.6718 16.969 18.1358 17.4818 18.0263 17.5989C17.7808 17.8613 17.5307 18.1095 17.2903 18.348C15.8052 19.8214 14.6916 20.9264 17.3519 22.7307C18.6304 23.5978 19.6534 24.3148 20.674 25.0302C21.7886 25.8114 22.9003 26.5906 24.3387 27.561C24.7052 27.8082 25.0552 28.065 25.3961 28.3152C26.6932 29.2669 27.8586 30.122 29.2983 29.9856C30.1349 29.9064 30.999 29.0968 31.4379 26.6821C32.4751 20.9756 34.5137 8.6112 34.9849 3.51614C35.0262 3.06975 34.9742 2.49845 34.9325 2.24767C34.8908 1.99688 34.8037 1.63957 34.487 1.37506C34.1119 1.0618 33.5328 0.995739 33.2738 1.00021C32.0963 1.02178 30.2896 1.66832 21.5952 5.39027Z" stroke="black" stroke-linejoin="round"/>
</svg>
