<svg width="41" height="35" viewBox="0 0 41 35" fill="none" xmlns="http://www.w3.org/2000/svg">
<path fill-rule="evenodd" clip-rule="evenodd" d="M24.6239 5.99582C21.131 7.47919 14.15 10.5494 3.68105 15.2064C1.98105 15.8967 1.09052 16.5719 1.00945 17.2322C0.872439 18.348 2.24106 18.7874 4.10476 19.3858C4.35826 19.4672 4.62092 19.5515 4.8902 19.6409C6.72379 20.2494 9.19028 20.9614 10.4725 20.9897C11.6356 21.0153 12.9338 20.5257 14.367 19.5209C24.1485 12.7793 29.1977 9.37183 29.5147 9.29837C29.7383 9.24655 30.0483 9.18138 30.2582 9.37194C30.4682 9.5625 30.4476 9.92338 30.4253 10.0202C30.2898 10.6103 24.9174 15.7099 22.1373 18.3489C21.2706 19.1716 20.6558 19.7552 20.5301 19.8885C20.2486 20.187 19.9617 20.4694 19.6859 20.7409C17.9825 22.4175 16.705 23.6748 19.7566 25.7281C21.2231 26.7147 22.3966 27.5307 23.5673 28.3447C24.8458 29.2336 26.121 30.1203 27.7709 31.2246C28.1913 31.5059 28.5927 31.7982 28.9837 32.0828C30.4716 33.1658 31.8084 34.1388 33.4598 33.9836C34.4194 33.8935 35.4106 32.9722 35.914 30.2245C37.1037 23.7308 39.4422 9.66102 39.9827 3.86319C40.03 3.35523 39.9704 2.70514 39.9226 2.41976C39.8748 2.13438 39.7748 1.72778 39.4115 1.42679C38.9812 1.07032 38.317 0.995151 38.0199 1.00024C36.6692 1.02479 34.5969 1.76051 24.6239 5.99582Z" stroke="black" stroke-linejoin="round"/>
</svg>
