<svg width="44" height="44" viewBox="0 0 44 44" fill="none" xmlns="http://www.w3.org/2000/svg">
<path d="M1.13639 12.5934C1.23977 10.3343 1.59351 8.87724 2.07189 7.64046L2.07832 7.62337C2.55237 6.36484 3.29499 5.22473 4.25449 4.28239L4.26795 4.26917L4.28117 4.2557C5.2243 3.29497 6.36481 2.55308 7.62224 2.08029L7.64394 2.07199C8.87789 1.59212 10.3321 1.2397 12.5931 1.13633M1.13639 12.5934C1.0277 15.0072 1 15.7554 1 22.0138C1 28.2738 1.02618 29.0202 1.13633 31.4346M1.13639 12.5934L1.13638 13.2023M2.08029 36.4055C2.55308 37.6629 3.29497 38.8034 4.2557 39.7465L4.26914 39.7597L4.28235 39.7732C5.22474 40.7327 6.36488 41.4753 7.62343 41.9494L7.64222 41.9565C8.8773 42.4355 10.3322 42.788 12.5931 42.8914M2.08029 36.4055L2.07199 36.3838C1.59212 35.1498 1.2397 33.6956 1.13633 31.4346M2.08029 36.4055L2.05194 36.2562M1.13633 31.4346L1.17335 31.6295M1.13633 31.4346L1.13633 30.8242M2.05194 36.2562L1.17335 31.6295M2.05194 36.2562C1.6788 35.2703 1.29455 33.895 1.17335 31.6295M2.05194 36.2562C2.06503 36.2908 2.0781 36.3249 2.09116 36.3585C2.56438 37.6342 3.31417 38.7893 4.28665 39.7409C5.23783 40.7132 6.39252 41.4628 7.66781 41.936C8.69125 42.3347 10.1334 42.7513 12.5928 42.864C15.0747 42.977 15.8415 43 22.0138 43C28.1862 43 28.9536 42.9769 31.4356 42.864C33.898 42.7511 35.3384 42.3322 36.3583 41.9366C37.6343 41.4637 38.7896 40.7137 39.7411 39.7408C40.7133 38.7897 41.4629 37.6351 41.936 36.3598C42.3347 35.3364 42.7513 33.8943 42.864 31.4349C42.977 28.953 43 28.1846 43 22.0138C43 15.8431 42.9769 15.0741 42.864 12.5921C42.7505 10.1168 42.3278 8.67425 41.9304 7.6535C41.4109 6.31239 40.7521 5.29809 39.7395 4.28545C38.7289 3.27682 37.7173 2.61764 36.3752 2.09762C35.3508 1.69713 33.9073 1.27699 31.4356 1.16372C31.2207 1.15394 31.0186 1.14483 30.8247 1.13635M1.17335 31.6295C1.16993 31.5656 1.16672 31.501 1.16372 31.4356C1.15393 31.2205 1.14482 31.0182 1.13633 30.8242M12.5931 1.13633C15.0075 1.02618 15.7554 1 22.0138 1C28.2722 1 29.0199 1.02767 31.4336 1.13635M12.5931 1.13633L13.2035 1.13633M31.4336 1.13635L30.8247 1.13635M31.4336 1.13635C33.6931 1.2397 35.1504 1.59338 36.3873 2.07181L36.4043 2.07832C37.6629 2.55237 38.803 3.29499 39.7453 4.25449L39.7584 4.26782L39.7717 4.2809C40.7314 5.22333 41.4739 6.36375 41.9476 7.62264L41.9557 7.64394C42.4356 8.87789 42.788 10.3321 42.8914 12.5931M13.2035 1.13633L30.8247 1.13635M13.2035 1.13633C15.248 1.04694 16.3779 1.0277 22.0138 1.0277C27.6502 1.0277 28.7799 1.04694 30.8247 1.13635M13.2035 1.13633C13.0095 1.14481 12.8072 1.15393 12.5921 1.16372C10.1296 1.27657 8.68923 1.69552 7.66941 2.09107C6.3886 2.56586 5.22943 3.31964 4.2759 4.29781C3.2727 5.30513 2.61606 6.31458 2.0977 7.65235C1.69718 8.67673 1.27697 10.1209 1.16369 12.5928C1.15393 12.8072 1.14484 13.0088 1.13638 13.2023M42.8914 31.4346C42.788 33.6955 42.4356 35.1504 41.9566 36.3855L41.9494 36.4043C41.4753 37.6629 40.7327 38.803 39.7732 39.7453L39.7597 39.7585L39.7465 39.772C38.8034 40.7327 37.6629 41.4746 36.4055 41.9474L36.3838 41.9557C35.1498 42.4356 33.6956 42.788 31.4346 42.8914M1.13633 30.8242C1.04694 28.7797 1.0277 27.6498 1.0277 22.0138C1.0277 16.3762 1.04692 15.2478 1.13638 13.2023M1.13633 30.8242L1.13638 13.2023M18.2764 31.0369C19.4613 31.5277 20.7313 31.7803 22.0139 31.7803C24.6041 31.7803 27.0882 30.7513 28.9198 28.9198C30.7514 27.0882 31.7803 24.6041 31.7803 22.0138C31.7803 19.4236 30.7514 16.9395 28.9198 15.1079C27.0882 13.2764 24.6041 12.2474 22.0139 12.2474C20.7313 12.2474 19.4613 12.5 18.2764 12.9908C17.0915 13.4816 16.0148 14.201 15.1079 15.1079C14.201 16.0148 13.4816 17.0915 12.9908 18.2764C12.5 19.4613 12.2474 20.7313 12.2474 22.0138C12.2474 23.2964 12.5 24.5664 12.9908 25.7513C13.4816 26.9362 14.201 28.0129 15.1079 28.9198C16.0148 29.8267 17.0915 30.5461 18.2764 31.0369ZM15.0862 15.0862C16.9235 13.2488 19.4155 12.2166 22.0139 12.2166C24.6122 12.2166 27.1042 13.2488 28.9415 15.0862C30.7789 16.9235 31.8111 19.4155 31.8111 22.0138C31.8111 24.6122 30.7789 27.1042 28.9415 28.9415C27.1042 30.7789 24.6122 31.8111 22.0139 31.8111C19.4155 31.8111 16.9235 30.7789 15.0862 28.9415C13.2488 27.1042 12.2166 24.6122 12.2166 22.0138C12.2166 19.4155 13.2488 16.9235 15.0862 15.0862ZM37.3278 9.9356C37.3278 10.6793 37.0324 11.3926 36.5065 11.9184C35.9807 12.4443 35.2674 12.7397 34.5237 12.7397C33.78 12.7397 33.0667 12.4443 32.5409 11.9184C32.015 11.3926 31.7195 10.6793 31.7195 9.9356C31.7195 9.19189 32.015 8.47864 32.5409 7.95276C33.0667 7.42688 33.78 7.13144 34.5237 7.13144C35.2674 7.13144 35.9807 7.42688 36.5065 7.95276C37.0324 8.47864 37.3278 9.19189 37.3278 9.9356Z" stroke="black" stroke-linejoin="round"/>
</svg>
