<svg width="41" height="43" viewBox="0 0 41 43" fill="none" xmlns="http://www.w3.org/2000/svg">
<path fill-rule="evenodd" clip-rule="evenodd" d="M16.4024 13.7428C16.0917 13.0344 15.7466 13.0172 15.4531 13.0172C15.194 13 14.9167 13 14.6232 13C14.348 13 13.8814 13.1032 13.4847 13.5354C13.0869 13.9665 12 14.9856 12 17.0745C12 19.1644 13.5191 21.1844 13.7266 21.4607C13.933 21.737 16.6615 26.1566 20.9789 27.867C24.5696 29.2829 25.2953 29.0066 26.0725 28.9195C26.8488 28.8335 28.5764 27.9014 28.9387 26.8995C29.2838 25.9158 29.2838 25.0525 29.1805 24.8794C29.0773 24.7074 28.7828 24.6031 28.3689 24.3785C27.9367 24.172 25.8651 23.1357 25.4684 22.997C25.0706 22.8594 24.7943 22.7906 24.518 23.2045C24.2417 23.6366 23.4301 24.5859 23.172 24.8622C22.9291 25.1385 22.671 25.1729 22.2561 24.9655C21.825 24.759 20.4607 24.3097 18.8374 22.8594C17.5764 21.736 16.7303 20.3384 16.4712 19.9244C16.2304 19.4923 16.4368 19.2676 16.6615 19.0602C16.8518 18.8709 17.0936 18.5602 17.3011 18.3183C17.5076 18.0754 17.5764 17.8862 17.7322 17.6099C17.8699 17.3336 17.8011 17.0745 17.6978 16.8681C17.5936 16.6778 16.7829 14.5889 16.4024 13.7428Z" stroke="black" stroke-linejoin="round"/>
<path d="M4.49305 31.8658C2.21529 28.5764 0.995886 24.661 1.00001 20.6499C1.00001 9.79719 9.73007 1 20.5 1C31.2699 1 40 9.79719 40 20.6499C40 31.5027 31.2699 40.2999 20.5 40.2999C17.3139 40.2999 14.3092 39.525 11.6529 38.1597L7.57151 39.9128L2.71516 42L3.6342 36.7612L4.49305 31.8658Z" stroke="black" stroke-miterlimit="10" stroke-linecap="round" stroke-linejoin="round"/>
</svg>
