<svg width="17" height="9" viewBox="0 0 17 9" fill="none" xmlns="http://www.w3.org/2000/svg">
<path d="M15.8255 0.207377L15.8278 0.209771V0.203613C15.9569 0.0780508 16.1295 0.0078125 16.3092 0.0078125C16.49 0.0078125 16.6637 0.0789034 16.793 0.205899L16.793 0.205908C16.856 0.267596 16.9061 0.341355 16.9404 0.42283C16.9746 0.504306 16.9922 0.591846 16.9922 0.680284C16.9922 0.768722 16.9746 0.856262 16.9404 0.937737C16.9061 1.01921 16.856 1.09297 16.793 1.15466L16.7984 1.1602L16.793 1.15466L9.00498 8.78543C8.86967 8.918 8.68819 8.99219 8.49925 8.99219C8.31031 8.99219 8.12884 8.918 7.99353 8.78543L0.205516 1.1532C0.142925 1.09156 0.093197 1.01798 0.0592482 0.936778C0.0252994 0.855571 0.0078125 0.768371 0.0078125 0.680284C0.0078125 0.592197 0.0252994 0.504996 0.0592482 0.42379C0.093197 0.342583 0.142925 0.269006 0.205516 0.207363C0.334851 0.0803732 0.508471 0.00928466 0.689257 0.00928466C0.870047 0.00928466 1.04367 0.0803762 1.17301 0.207372L1.17301 0.207377L8.49378 7.38027L8.23128 7.64818L8.50472 7.38027L15.8255 0.207377ZM7.98806 8.79101C8.12482 8.92501 8.30826 9 8.49925 9C8.69024 9 8.87368 8.92501 9.01044 8.79101L16.7985 1.16024C16.8622 1.09783 16.9129 1.0232 16.9476 0.940762C16.9822 0.858328 17 0.769759 17 0.680284C17 0.590809 16.9822 0.50224 16.9476 0.419805C16.9129 0.337371 16.8622 0.262743 16.7985 0.200324L7.98806 8.79101Z" fill="white" stroke="white" stroke-width="0.015625"/>
</svg>
